<?xml version="1.0" encoding="utf-8" standalone="no"?>
<!DOCTYPE svg PUBLIC "-//W3C//DTD SVG 1.1//EN"
  "http://www.w3.org/Graphics/SVG/1.1/DTD/svg11.dtd">
<svg xmlns:xlink="http://www.w3.org/1999/xlink" width="872.39952pt" height="267.59952pt" viewBox="0 0 872.39952 267.59952" xmlns="http://www.w3.org/2000/svg" version="1.1">
 <metadata>
  <rdf:RDF xmlns:dc="http://purl.org/dc/elements/1.1/" xmlns:cc="http://creativecommons.org/ns#" xmlns:rdf="http://www.w3.org/1999/02/22-rdf-syntax-ns#">
   <cc:Work>
    <dc:type rdf:resource="http://purl.org/dc/dcmitype/StillImage"/>
    <dc:date>2026-10-03T00:44:26.085491</dc:date>
    <dc:format>image/svg+xml</dc:format>
    <dc:creator>
     <cc:Agent>
      <dc:title>Matplotlib v3.11.2, https://matplotlib.org/</dc:title>
     </cc:Agent>
    </dc:creator>
   </cc:Work>
  </rdf:RDF>
 </metadata>
 <defs>
  <style type="text/css">*{stroke-linejoin: round; stroke-linecap: butt}</style>
 </defs>
 <g id="figure_1">
  <g id="patch_1">
   <path d="M 0 267.59952 
L 872.39952 267.59952 
L 872.39952 0 
L 0 0 
z
" style="fill: #fcfcfb"/>
  </g>
  <g id="axes_1">
   <g id="patch_2">
    <path d="M 26.925 229.398739 
L 431.87976 229.398739 
L 431.87976 21.998281 
L 26.925 21.998281 
z
" style="fill: #fcfcfb"/>
   </g>
   <g id="patch_3">
    <path d="M 45.332035 229.398739 
L 54.535552 229.398739 
L 54.535552 229.398739 
L 45.332035 229.398739 
z
" clip-path="url(#p62d05ca90d)" style="fill: #52514e; opacity: 0.55"/>
   </g>
   <g id="patch_4">
    <path d="M 54.535552 229.398739 
L 63.739069 229.398739 
L 63.739069 229.398739 
L 54.535552 229.398739 
z
" clip-path="url(#p62d05ca90d)" style="fill: #52514e; opacity: 0.55"/>
   </g>
   <g id="patch_5">
    <path d="M 63.739069 229.398739 
L 72.942586 229.398739 
L 72.942586 229.398739 
L 63.739069 229.398739 
z
" clip-path="url(#p62d05ca90d)" style="fill: #52514e; opacity: 0.55"/>
   </g>
   <g id="patch_6">
    <path d="M 72.942586 229.398739 
L 82.146104 229.398739 
L 82.146104 229.398739 
L 72.942586 229.398739 
z
" clip-path="url(#p62d05ca90d)" style="fill: #52514e; opacity: 0.55"/>
   </g>
   <g id="patch_7">
    <path d="M 82.146104 229.398739 
L 91.349621 229.398739 
L 91.349621 229.398739 
L 82.146104 229.398739 
z
" clip-path="url(#p62d05ca90d)" style="fill: #52514e; opacity: 0.55"/>
   </g>
   <g id="patch_8">
    <path d="M 91.349621 229.398739 
L 100.553138 229.398739 
L 100.553138 229.398739 
L 91.349621 229.398739 
z
" clip-path="url(#p62d05ca90d)" style="fill: #52514e; opacity: 0.55"/>
   </g>
   <g id="patch_9">
    <path d="M 100.553138 229.398739 
L 109.756655 229.398739 
L 109.756655 229.398739 
L 100.553138 229.398739 
z
" clip-path="url(#p62d05ca90d)" style="fill: #52514e; opacity: 0.55"/>
   </g>
   <g id="patch_10">
    <path d="M 109.756655 229.398739 
L 118.960173 229.398739 
L 118.960173 229.398739 
L 109.756655 229.398739 
z
" clip-path="url(#p62d05ca90d)" style="fill: #52514e; opacity: 0.55"/>
   </g>
   <g id="patch_11">
    <path d="M 118.960173 229.398739 
L 128.16369 229.398739 
L 128.16369 217.053473 
L 118.960173 217.053473 
z
" clip-path="url(#p62d05ca90d)" style="fill: #52514e; opacity: 0.55"/>
   </g>
   <g id="patch_12">
    <path d="M 128.16369 229.398739 
L 137.367207 229.398739 
L 137.367207 217.053473 
L 128.16369 217.053473 
z
" clip-path="url(#p62d05ca90d)" style="fill: #52514e; opacity: 0.55"/>
   </g>
   <g id="patch_13">
    <path d="M 137.367207 229.398739 
L 146.570725 229.398739 
L 146.570725 217.053473 
L 137.367207 217.053473 
z
" clip-path="url(#p62d05ca90d)" style="fill: #52514e; opacity: 0.55"/>
   </g>
   <g id="patch_14">
    <path d="M 146.570725 229.398739 
L 155.774242 229.398739 
L 155.774242 229.398739 
L 146.570725 229.398739 
z
" clip-path="url(#p62d05ca90d)" style="fill: #52514e; opacity: 0.55"/>
   </g>
   <g id="patch_15">
    <path d="M 155.774242 229.398739 
L 164.977759 229.398739 
L 164.977759 217.053473 
L 155.774242 217.053473 
z
" clip-path="url(#p62d05ca90d)" style="fill: #52514e; opacity: 0.55"/>
   </g>
   <g id="patch_16">
    <path d="M 164.977759 229.398739 
L 174.181276 229.398739 
L 174.181276 217.053473 
L 164.977759 217.053473 
z
" clip-path="url(#p62d05ca90d)" style="fill: #52514e; opacity: 0.55"/>
   </g>
   <g id="patch_17">
    <path d="M 174.181276 229.398739 
L 183.384794 229.398739 
L 183.384794 229.398739 
L 174.181276 229.398739 
z
" clip-path="url(#p62d05ca90d)" style="fill: #52514e; opacity: 0.55"/>
   </g>
   <g id="patch_18">
    <path d="M 183.384794 229.398739 
L 192.588311 229.398739 
L 192.588311 180.017677 
L 183.384794 180.017677 
z
" clip-path="url(#p62d05ca90d)" style="fill: #52514e; opacity: 0.55"/>
   </g>
   <g id="patch_19">
    <path d="M 192.588311 229.398739 
L 201.791828 229.398739 
L 201.791828 105.946085 
L 192.588311 105.946085 
z
" clip-path="url(#p62d05ca90d)" style="fill: #52514e; opacity: 0.55"/>
   </g>
   <g id="patch_20">
    <path d="M 201.791828 229.398739 
L 210.995345 229.398739 
L 210.995345 180.017677 
L 201.791828 180.017677 
z
" clip-path="url(#p62d05ca90d)" style="fill: #52514e; opacity: 0.55"/>
   </g>
   <g id="patch_21">
    <path d="M 210.995345 229.398739 
L 220.198863 229.398739 
L 220.198863 105.946085 
L 210.995345 105.946085 
z
" clip-path="url(#p62d05ca90d)" style="fill: #52514e; opacity: 0.55"/>
   </g>
   <g id="patch_22">
    <path d="M 220.198863 229.398739 
L 229.40238 229.398739 
L 229.40238 44.219759 
L 220.198863 44.219759 
z
" clip-path="url(#p62d05ca90d)" style="fill: #52514e; opacity: 0.55"/>
   </g>
   <g id="patch_23">
    <path d="M 229.40238 229.398739 
L 238.605897 229.398739 
L 238.605897 31.874494 
L 229.40238 31.874494 
z
" clip-path="url(#p62d05ca90d)" style="fill: #52514e; opacity: 0.55"/>
   </g>
   <g id="patch_24">
    <path d="M 238.605897 229.398739 
L 247.809415 229.398739 
L 247.809415 56.565024 
L 238.605897 56.565024 
z
" clip-path="url(#p62d05ca90d)" style="fill: #52514e; opacity: 0.55"/>
   </g>
   <g id="patch_25">
    <path d="M 247.809415 229.398739 
L 257.012932 229.398739 
L 257.012932 167.672412 
L 247.809415 167.672412 
z
" clip-path="url(#p62d05ca90d)" style="fill: #52514e; opacity: 0.55"/>
   </g>
   <g id="patch_26">
    <path d="M 257.012932 229.398739 
L 266.216449 229.398739 
L 266.216449 130.636616 
L 257.012932 130.636616 
z
" clip-path="url(#p62d05ca90d)" style="fill: #52514e; opacity: 0.55"/>
   </g>
   <g id="patch_27">
    <path d="M 266.216449 229.398739 
L 275.419966 229.398739 
L 275.419966 155.327147 
L 266.216449 155.327147 
z
" clip-path="url(#p62d05ca90d)" style="fill: #52514e; opacity: 0.55"/>
   </g>
   <g id="patch_28">
    <path d="M 275.419966 229.398739 
L 284.623484 229.398739 
L 284.623484 192.362943 
L 275.419966 192.362943 
z
" clip-path="url(#p62d05ca90d)" style="fill: #52514e; opacity: 0.55"/>
   </g>
   <g id="patch_29">
    <path d="M 284.623484 229.398739 
L 293.827001 229.398739 
L 293.827001 180.017677 
L 284.623484 180.017677 
z
" clip-path="url(#p62d05ca90d)" style="fill: #52514e; opacity: 0.55"/>
   </g>
   <g id="patch_30">
    <path d="M 293.827001 229.398739 
L 303.030518 229.398739 
L 303.030518 192.362943 
L 293.827001 192.362943 
z
" clip-path="url(#p62d05ca90d)" style="fill: #52514e; opacity: 0.55"/>
   </g>
   <g id="patch_31">
    <path d="M 303.030518 229.398739 
L 312.234035 229.398739 
L 312.234035 204.708208 
L 303.030518 204.708208 
z
" clip-path="url(#p62d05ca90d)" style="fill: #52514e; opacity: 0.55"/>
   </g>
   <g id="patch_32">
    <path d="M 312.234035 229.398739 
L 321.437553 229.398739 
L 321.437553 180.017677 
L 312.234035 180.017677 
z
" clip-path="url(#p62d05ca90d)" style="fill: #52514e; opacity: 0.55"/>
   </g>
   <g id="patch_33">
    <path d="M 321.437553 229.398739 
L 330.64107 229.398739 
L 330.64107 229.398739 
L 321.437553 229.398739 
z
" clip-path="url(#p62d05ca90d)" style="fill: #52514e; opacity: 0.55"/>
   </g>
   <g id="patch_34">
    <path d="M 330.64107 229.398739 
L 339.844587 229.398739 
L 339.844587 204.708208 
L 330.64107 204.708208 
z
" clip-path="url(#p62d05ca90d)" style="fill: #52514e; opacity: 0.55"/>
   </g>
   <g id="patch_35">
    <path d="M 339.844587 229.398739 
L 349.048105 229.398739 
L 349.048105 217.053473 
L 339.844587 217.053473 
z
" clip-path="url(#p62d05ca90d)" style="fill: #52514e; opacity: 0.55"/>
   </g>
   <g id="patch_36">
    <path d="M 349.048105 229.398739 
L 358.251622 229.398739 
L 358.251622 217.053473 
L 349.048105 217.053473 
z
" clip-path="url(#p62d05ca90d)" style="fill: #52514e; opacity: 0.55"/>
   </g>
   <g id="patch_37">
    <path d="M 358.251622 229.398739 
L 367.455139 229.398739 
L 367.455139 229.398739 
L 358.251622 229.398739 
z
" clip-path="url(#p62d05ca90d)" style="fill: #52514e; opacity: 0.55"/>
   </g>
   <g id="patch_38">
    <path d="M 367.455139 229.398739 
L 376.658656 229.398739 
L 376.658656 229.398739 
L 367.455139 229.398739 
z
" clip-path="url(#p62d05ca90d)" style="fill: #52514e; opacity: 0.55"/>
   </g>
   <g id="patch_39">
    <path d="M 376.658656 229.398739 
L 385.862174 229.398739 
L 385.862174 229.398739 
L 376.658656 229.398739 
z
" clip-path="url(#p62d05ca90d)" style="fill: #52514e; opacity: 0.55"/>
   </g>
   <g id="patch_40">
    <path d="M 385.862174 229.398739 
L 395.065691 229.398739 
L 395.065691 229.398739 
L 385.862174 229.398739 
z
" clip-path="url(#p62d05ca90d)" style="fill: #52514e; opacity: 0.55"/>
   </g>
   <g id="patch_41">
    <path d="M 395.065691 229.398739 
L 404.269208 229.398739 
L 404.269208 229.398739 
L 395.065691 229.398739 
z
" clip-path="url(#p62d05ca90d)" style="fill: #52514e; opacity: 0.55"/>
   </g>
   <g id="patch_42">
    <path d="M 404.269208 229.398739 
L 413.472725 229.398739 
L 413.472725 204.708208 
L 404.269208 204.708208 
z
" clip-path="url(#p62d05ca90d)" style="fill: #52514e; opacity: 0.55"/>
   </g>
   <g id="matplotlib.axis_1">
    <g id="xtick_1">
     <g id="line2d_1">
      <path d="M 45.332035 229.398739 
L 45.332035 21.998281 
" clip-path="url(#p62d05ca90d)" style="fill: none; stroke: #e4e3df; stroke-width: 0.8; stroke-linecap: square"/>
     </g>
     <g id="line2d_2">
      <defs>
       <path id="ma6896f5e79" d="M 0 0 
L 0 3.5 
" style="stroke: #52514e; stroke-width: 0.8"/>
      </defs>
      <g>
       <use xlink:href="#ma6896f5e79" x="45.332035" y="229.398739" style="fill: #52514e; stroke: #52514e; stroke-width: 0.8"/>
      </g>
     </g>
     <g id="text_1">
      <!-- −30 -->
      <g style="fill: #52514e" transform="translate(34.779691 243.996395) scale(0.1 -0.1)">
       <defs>
        <path id="DejaVuSans-c9c" d="M 678 2272 
L 4684 2272 
L 4684 1741 
L 678 1741 
L 678 2272 
z
" transform="scale(0.015625)"/>
        <path id="DejaVuSans-16" d="M 2597 2516 
Q 3050 2419 3304 2112 
Q 3559 1806 3559 1356 
Q 3559 666 3084 287 
Q 2609 -91 1734 -91 
Q 1441 -91 1130 -33 
Q 819 25 488 141 
L 488 750 
Q 750 597 1062 519 
Q 1375 441 1716 441 
Q 2309 441 2620 675 
Q 2931 909 2931 1356 
Q 2931 1769 2642 2001 
Q 2353 2234 1838 2234 
L 1294 2234 
L 1294 2753 
L 1863 2753 
Q 2328 2753 2575 2939 
Q 2822 3125 2822 3475 
Q 2822 3834 2567 4026 
Q 2313 4219 1838 4219 
Q 1578 4219 1281 4162 
Q 984 4106 628 3988 
L 628 4550 
Q 988 4650 1302 4700 
Q 1616 4750 1894 4750 
Q 2613 4750 3031 4423 
Q 3450 4097 3450 3541 
Q 3450 3153 3228 2886 
Q 3006 2619 2597 2516 
z
" transform="scale(0.015625)"/>
        <path id="DejaVuSans-13" d="M 2034 4250 
Q 1547 4250 1301 3770 
Q 1056 3291 1056 2328 
Q 1056 1369 1301 889 
Q 1547 409 2034 409 
Q 2525 409 2770 889 
Q 3016 1369 3016 2328 
Q 3016 3291 2770 3770 
Q 2525 4250 2034 4250 
z
M 2034 4750 
Q 2819 4750 3233 4129 
Q 3647 3509 3647 2328 
Q 3647 1150 3233 529 
Q 2819 -91 2034 -91 
Q 1250 -91 836 529 
Q 422 1150 422 2328 
Q 422 3509 836 4129 
Q 1250 4750 2034 4750 
z
" transform="scale(0.015625)"/>
       </defs>
       <use xlink:href="#DejaVuSans-c9c"/>
       <use xlink:href="#DejaVuSans-16" transform="translate(83.796875 0)"/>
       <use xlink:href="#DejaVuSans-13" transform="translate(147.421875 0)"/>
      </g>
     </g>
    </g>
    <g id="xtick_2">
     <g id="line2d_3">
      <path d="M 106.688816 229.398739 
L 106.688816 21.998281 
" clip-path="url(#p62d05ca90d)" style="fill: none; stroke: #e4e3df; stroke-width: 0.8; stroke-linecap: square"/>
     </g>
     <g id="line2d_4">
      <g>
       <use xlink:href="#ma6896f5e79" x="106.688816" y="229.398739" style="fill: #52514e; stroke: #52514e; stroke-width: 0.8"/>
      </g>
     </g>
     <g id="text_2">
      <!-- −20 -->
      <g style="fill: #52514e" transform="translate(96.136473 243.996395) scale(0.1 -0.1)">
       <defs>
        <path id="DejaVuSans-15" d="M 1228 531 
L 3431 531 
L 3431 0 
L 469 0 
L 469 531 
Q 828 903 1448 1529 
Q 2069 2156 2228 2338 
Q 2531 2678 2651 2914 
Q 2772 3150 2772 3378 
Q 2772 3750 2511 3984 
Q 2250 4219 1831 4219 
Q 1534 4219 1204 4116 
Q 875 4013 500 3803 
L 500 4441 
Q 881 4594 1212 4672 
Q 1544 4750 1819 4750 
Q 2544 4750 2975 4387 
Q 3406 4025 3406 3419 
Q 3406 3131 3298 2873 
Q 3191 2616 2906 2266 
Q 2828 2175 2409 1742 
Q 1991 1309 1228 531 
z
" transform="scale(0.015625)"/>
       </defs>
       <use xlink:href="#DejaVuSans-c9c"/>
       <use xlink:href="#DejaVuSans-15" transform="translate(83.796875 0)"/>
       <use xlink:href="#DejaVuSans-13" transform="translate(147.421875 0)"/>
      </g>
     </g>
    </g>
    <g id="xtick_3">
     <g id="line2d_5">
      <path d="M 168.045598 229.398739 
L 168.045598 21.998281 
" clip-path="url(#p62d05ca90d)" style="fill: none; stroke: #e4e3df; stroke-width: 0.8; stroke-linecap: square"/>
     </g>
     <g id="line2d_6">
      <g>
       <use xlink:href="#ma6896f5e79" x="168.045598" y="229.398739" style="fill: #52514e; stroke: #52514e; stroke-width: 0.8"/>
      </g>
     </g>
     <g id="text_3">
      <!-- −10 -->
      <g style="fill: #52514e" transform="translate(157.493254 243.996395) scale(0.1 -0.1)">
       <defs>
        <path id="DejaVuSans-14" d="M 794 531 
L 1825 531 
L 1825 4091 
L 703 3866 
L 703 4441 
L 1819 4666 
L 2450 4666 
L 2450 531 
L 3481 531 
L 3481 0 
L 794 0 
L 794 531 
z
" transform="scale(0.015625)"/>
       </defs>
       <use xlink:href="#DejaVuSans-c9c"/>
       <use xlink:href="#DejaVuSans-14" transform="translate(83.796875 0)"/>
       <use xlink:href="#DejaVuSans-13" transform="translate(147.421875 0)"/>
      </g>
     </g>
    </g>
    <g id="xtick_4">
     <g id="line2d_7">
      <path d="M 229.40238 229.398739 
L 229.40238 21.998281 
" clip-path="url(#p62d05ca90d)" style="fill: none; stroke: #e4e3df; stroke-width: 0.8; stroke-linecap: square"/>
     </g>
     <g id="line2d_8">
      <g>
       <use xlink:href="#ma6896f5e79" x="229.40238" y="229.398739" style="fill: #52514e; stroke: #52514e; stroke-width: 0.8"/>
      </g>
     </g>
     <g id="text_4">
      <!-- 0 -->
      <g style="fill: #52514e" transform="translate(226.22113 243.996395) scale(0.1 -0.1)">
       <use xlink:href="#DejaVuSans-13"/>
      </g>
     </g>
    </g>
    <g id="xtick_5">
     <g id="line2d_9">
      <path d="M 290.759162 229.398739 
L 290.759162 21.998281 
" clip-path="url(#p62d05ca90d)" style="fill: none; stroke: #e4e3df; stroke-width: 0.8; stroke-linecap: square"/>
     </g>
     <g id="line2d_10">
      <g>
       <use xlink:href="#ma6896f5e79" x="290.759162" y="229.398739" style="fill: #52514e; stroke: #52514e; stroke-width: 0.8"/>
      </g>
     </g>
     <g id="text_5">
      <!-- 10 -->
      <g style="fill: #52514e" transform="translate(284.396662 243.996395) scale(0.1 -0.1)">
       <use xlink:href="#DejaVuSans-14"/>
       <use xlink:href="#DejaVuSans-13" transform="translate(63.625 0)"/>
      </g>
     </g>
    </g>
    <g id="xtick_6">
     <g id="line2d_11">
      <path d="M 352.115944 229.398739 
L 352.115944 21.998281 
" clip-path="url(#p62d05ca90d)" style="fill: none; stroke: #e4e3df; stroke-width: 0.8; stroke-linecap: square"/>
     </g>
     <g id="line2d_12">
      <g>
       <use xlink:href="#ma6896f5e79" x="352.115944" y="229.398739" style="fill: #52514e; stroke: #52514e; stroke-width: 0.8"/>
      </g>
     </g>
     <g id="text_6">
      <!-- 20 -->
      <g style="fill: #52514e" transform="translate(345.753444 243.996395) scale(0.1 -0.1)">
       <use xlink:href="#DejaVuSans-15"/>
       <use xlink:href="#DejaVuSans-13" transform="translate(63.625 0)"/>
      </g>
     </g>
    </g>
    <g id="xtick_7">
     <g id="line2d_13">
      <path d="M 413.472725 229.398739 
L 413.472725 21.998281 
" clip-path="url(#p62d05ca90d)" style="fill: none; stroke: #e4e3df; stroke-width: 0.8; stroke-linecap: square"/>
     </g>
     <g id="line2d_14">
      <g>
       <use xlink:href="#ma6896f5e79" x="413.472725" y="229.398739" style="fill: #52514e; stroke: #52514e; stroke-width: 0.8"/>
      </g>
     </g>
     <g id="text_7">
      <!-- 30 -->
      <g style="fill: #52514e" transform="translate(407.110225 243.996395) scale(0.1 -0.1)">
       <use xlink:href="#DejaVuSans-16"/>
       <use xlink:href="#DejaVuSans-13" transform="translate(63.625 0)"/>
      </g>
     </g>
    </g>
    <g id="text_8">
     <!-- ← MinT meilleur        MinT moins bon → -->
     <g style="fill: #52514e" transform="translate(131.603942 257.997176) scale(0.1 -0.1)">
      <defs>
       <path id="DejaVuSans-c1a" d="M 313 1866 
L 313 2147 
L 1541 3375 
L 1916 3000 
L 1188 2272 
L 4997 2272 
L 4997 1741 
L 1188 1741 
L 1916 1013 
L 1541 638 
L 313 1866 
z
" transform="scale(0.015625)"/>
       <path id="DejaVuSans-3" transform="scale(0.015625)"/>
       <path id="DejaVuSans-30" d="M 628 4666 
L 1569 4666 
L 2759 1491 
L 3956 4666 
L 4897 4666 
L 4897 0 
L 4281 0 
L 4281 4097 
L 3078 897 
L 2444 897 
L 1241 4097 
L 1241 0 
L 628 0 
L 628 4666 
z
" transform="scale(0.015625)"/>
       <path id="DejaVuSans-4c" d="M 603 3500 
L 1178 3500 
L 1178 0 
L 603 0 
L 603 3500 
z
M 603 4863 
L 1178 4863 
L 1178 4134 
L 603 4134 
L 603 4863 
z
" transform="scale(0.015625)"/>
       <path id="DejaVuSans-51" d="M 3513 2113 
L 3513 0 
L 2938 0 
L 2938 2094 
Q 2938 2591 2744 2837 
Q 2550 3084 2163 3084 
Q 1697 3084 1428 2787 
Q 1159 2491 1159 1978 
L 1159 0 
L 581 0 
L 581 3500 
L 1159 3500 
L 1159 2956 
Q 1366 3272 1645 3428 
Q 1925 3584 2291 3584 
Q 2894 3584 3203 3211 
Q 3513 2838 3513 2113 
z
" transform="scale(0.015625)"/>
       <path id="DejaVuSans-37" d="M -19 4666 
L 3928 4666 
L 3928 4134 
L 2272 4134 
L 2272 0 
L 1638 0 
L 1638 4134 
L -19 4134 
L -19 4666 
z
" transform="scale(0.015625)"/>
       <path id="DejaVuSans-50" d="M 3328 2828 
Q 3544 3216 3844 3400 
Q 4144 3584 4550 3584 
Q 5097 3584 5394 3201 
Q 5691 2819 5691 2113 
L 5691 0 
L 5113 0 
L 5113 2094 
Q 5113 2597 4934 2840 
Q 4756 3084 4391 3084 
Q 3944 3084 3684 2787 
Q 3425 2491 3425 1978 
L 3425 0 
L 2847 0 
L 2847 2094 
Q 2847 2600 2669 2842 
Q 2491 3084 2119 3084 
Q 1678 3084 1418 2786 
Q 1159 2488 1159 1978 
L 1159 0 
L 581 0 
L 581 3500 
L 1159 3500 
L 1159 2956 
Q 1356 3278 1631 3431 
Q 1906 3584 2284 3584 
Q 2666 3584 2933 3390 
Q 3200 3197 3328 2828 
z
" transform="scale(0.015625)"/>
       <path id="DejaVuSans-48" d="M 3597 1894 
L 3597 1613 
L 953 1613 
Q 991 1019 1311 708 
Q 1631 397 2203 397 
Q 2534 397 2845 478 
Q 3156 559 3463 722 
L 3463 178 
Q 3153 47 2828 -22 
Q 2503 -91 2169 -91 
Q 1331 -91 842 396 
Q 353 884 353 1716 
Q 353 2575 817 3079 
Q 1281 3584 2069 3584 
Q 2775 3584 3186 3129 
Q 3597 2675 3597 1894 
z
M 3022 2063 
Q 3016 2534 2758 2815 
Q 2500 3097 2075 3097 
Q 1594 3097 1305 2825 
Q 1016 2553 972 2059 
L 3022 2063 
z
" transform="scale(0.015625)"/>
       <path id="DejaVuSans-4f" d="M 603 4863 
L 1178 4863 
L 1178 0 
L 603 0 
L 603 4863 
z
" transform="scale(0.015625)"/>
       <path id="DejaVuSans-58" d="M 544 1381 
L 544 3500 
L 1119 3500 
L 1119 1403 
Q 1119 906 1312 657 
Q 1506 409 1894 409 
Q 2359 409 2629 706 
Q 2900 1003 2900 1516 
L 2900 3500 
L 3475 3500 
L 3475 0 
L 2900 0 
L 2900 538 
Q 2691 219 2414 64 
Q 2138 -91 1772 -91 
Q 1169 -91 856 284 
Q 544 659 544 1381 
z
M 1991 3584 
L 1991 3584 
z
" transform="scale(0.015625)"/>
       <path id="DejaVuSans-55" d="M 2631 2963 
Q 2534 3019 2420 3045 
Q 2306 3072 2169 3072 
Q 1681 3072 1420 2755 
Q 1159 2438 1159 1844 
L 1159 0 
L 581 0 
L 581 3500 
L 1159 3500 
L 1159 2956 
Q 1341 3275 1631 3429 
Q 1922 3584 2338 3584 
Q 2397 3584 2469 3576 
Q 2541 3569 2628 3553 
L 2631 2963 
z
" transform="scale(0.015625)"/>
       <path id="DejaVuSans-52" d="M 1959 3097 
Q 1497 3097 1228 2736 
Q 959 2375 959 1747 
Q 959 1119 1226 758 
Q 1494 397 1959 397 
Q 2419 397 2687 759 
Q 2956 1122 2956 1747 
Q 2956 2369 2687 2733 
Q 2419 3097 1959 3097 
z
M 1959 3584 
Q 2709 3584 3137 3096 
Q 3566 2609 3566 1747 
Q 3566 888 3137 398 
Q 2709 -91 1959 -91 
Q 1206 -91 779 398 
Q 353 888 353 1747 
Q 353 2609 779 3096 
Q 1206 3584 1959 3584 
z
" transform="scale(0.015625)"/>
       <path id="DejaVuSans-56" d="M 2834 3397 
L 2834 2853 
Q 2591 2978 2328 3040 
Q 2066 3103 1784 3103 
Q 1356 3103 1142 2972 
Q 928 2841 928 2578 
Q 928 2378 1081 2264 
Q 1234 2150 1697 2047 
L 1894 2003 
Q 2506 1872 2764 1633 
Q 3022 1394 3022 966 
Q 3022 478 2636 193 
Q 2250 -91 1575 -91 
Q 1294 -91 989 -36 
Q 684 19 347 128 
L 347 722 
Q 666 556 975 473 
Q 1284 391 1588 391 
Q 1994 391 2212 530 
Q 2431 669 2431 922 
Q 2431 1156 2273 1281 
Q 2116 1406 1581 1522 
L 1381 1569 
Q 847 1681 609 1914 
Q 372 2147 372 2553 
Q 372 3047 722 3315 
Q 1072 3584 1716 3584 
Q 2034 3584 2315 3537 
Q 2597 3491 2834 3397 
z
" transform="scale(0.015625)"/>
       <path id="DejaVuSans-45" d="M 3116 1747 
Q 3116 2381 2855 2742 
Q 2594 3103 2138 3103 
Q 1681 3103 1420 2742 
Q 1159 2381 1159 1747 
Q 1159 1113 1420 752 
Q 1681 391 2138 391 
Q 2594 391 2855 752 
Q 3116 1113 3116 1747 
z
M 1159 2969 
Q 1341 3281 1617 3432 
Q 1894 3584 2278 3584 
Q 2916 3584 3314 3078 
Q 3713 2572 3713 1747 
Q 3713 922 3314 415 
Q 2916 -91 2278 -91 
Q 1894 -91 1617 61 
Q 1341 213 1159 525 
L 1159 0 
L 581 0 
L 581 4863 
L 1159 4863 
L 1159 2969 
z
" transform="scale(0.015625)"/>
       <path id="DejaVuSans-c1c" d="M 5050 2147 
L 5050 1866 
L 3822 638 
L 3447 1013 
L 4175 1741 
L 366 1741 
L 366 2272 
L 4175 2272 
L 3447 3000 
L 3822 3375 
L 5050 2147 
z
" transform="scale(0.015625)"/>
      </defs>
      <use xlink:href="#DejaVuSans-c1a"/>
      <use xlink:href="#DejaVuSans-3" transform="translate(83.796875 0)"/>
      <use xlink:href="#DejaVuSans-30" transform="translate(115.578125 0)"/>
      <use xlink:href="#DejaVuSans-4c" transform="translate(201.859375 0)"/>
      <use xlink:href="#DejaVuSans-51" transform="translate(229.640625 0)"/>
      <use xlink:href="#DejaVuSans-37" transform="translate(293.015625 0)"/>
      <use xlink:href="#DejaVuSans-3" transform="translate(354.09375 0)"/>
      <use xlink:href="#DejaVuSans-50" transform="translate(385.875 0)"/>
      <use xlink:href="#DejaVuSans-48" transform="translate(483.28125 0)"/>
      <use xlink:href="#DejaVuSans-4c" transform="translate(544.8125 0)"/>
      <use xlink:href="#DejaVuSans-4f" transform="translate(572.59375 0)"/>
      <use xlink:href="#DejaVuSans-4f" transform="translate(600.375 0)"/>
      <use xlink:href="#DejaVuSans-48" transform="translate(628.15625 0)"/>
      <use xlink:href="#DejaVuSans-58" transform="translate(689.6875 0)"/>
      <use xlink:href="#DejaVuSans-55" transform="translate(753.0625 0)"/>
      <use xlink:href="#DejaVuSans-3" transform="translate(794.171875 0)"/>
      <use xlink:href="#DejaVuSans-3" transform="translate(825.953125 0)"/>
      <use xlink:href="#DejaVuSans-3" transform="translate(857.734375 0)"/>
      <use xlink:href="#DejaVuSans-3" transform="translate(889.515625 0)"/>
      <use xlink:href="#DejaVuSans-3" transform="translate(921.296875 0)"/>
      <use xlink:href="#DejaVuSans-3" transform="translate(953.078125 0)"/>
      <use xlink:href="#DejaVuSans-3" transform="translate(984.859375 0)"/>
      <use xlink:href="#DejaVuSans-3" transform="translate(1016.640625 0)"/>
      <use xlink:href="#DejaVuSans-30" transform="translate(1048.421875 0)"/>
      <use xlink:href="#DejaVuSans-4c" transform="translate(1134.703125 0)"/>
      <use xlink:href="#DejaVuSans-51" transform="translate(1162.484375 0)"/>
      <use xlink:href="#DejaVuSans-37" transform="translate(1225.859375 0)"/>
      <use xlink:href="#DejaVuSans-3" transform="translate(1286.9375 0)"/>
      <use xlink:href="#DejaVuSans-50" transform="translate(1318.71875 0)"/>
      <use xlink:href="#DejaVuSans-52" transform="translate(1416.125 0)"/>
      <use xlink:href="#DejaVuSans-4c" transform="translate(1477.3125 0)"/>
      <use xlink:href="#DejaVuSans-51" transform="translate(1505.09375 0)"/>
      <use xlink:href="#DejaVuSans-56" transform="translate(1568.46875 0)"/>
      <use xlink:href="#DejaVuSans-3" transform="translate(1620.5625 0)"/>
      <use xlink:href="#DejaVuSans-45" transform="translate(1652.34375 0)"/>
      <use xlink:href="#DejaVuSans-52" transform="translate(1715.828125 0)"/>
      <use xlink:href="#DejaVuSans-51" transform="translate(1777.015625 0)"/>
      <use xlink:href="#DejaVuSans-3" transform="translate(1840.390625 0)"/>
      <use xlink:href="#DejaVuSans-c1c" transform="translate(1872.171875 0)"/>
     </g>
    </g>
   </g>
   <g id="matplotlib.axis_2">
    <g id="ytick_1">
     <g id="line2d_15">
      <path d="M 26.925 229.398739 
L 431.87976 229.398739 
" clip-path="url(#p62d05ca90d)" style="fill: none; stroke: #e4e3df; stroke-width: 0.8; stroke-linecap: square"/>
     </g>
     <g id="line2d_16">
      <defs>
       <path id="mbd95bcdca5" d="M 0 0 
L -3.5 0 
" style="stroke: #52514e; stroke-width: 0.8"/>
      </defs>
      <g>
       <use xlink:href="#mbd95bcdca5" x="26.925" y="229.398739" style="fill: #52514e; stroke: #52514e; stroke-width: 0.8"/>
      </g>
     </g>
     <g id="text_9">
      <!-- 0 -->
      <g style="fill: #52514e" transform="translate(13.5625 233.197567) scale(0.1 -0.1)">
       <use xlink:href="#DejaVuSans-13"/>
      </g>
     </g>
    </g>
    <g id="ytick_2">
     <g id="line2d_17">
      <path d="M 26.925 204.708208 
L 431.87976 204.708208 
" clip-path="url(#p62d05ca90d)" style="fill: none; stroke: #e4e3df; stroke-width: 0.8; stroke-linecap: square"/>
     </g>
     <g id="line2d_18">
      <g>
       <use xlink:href="#mbd95bcdca5" x="26.925" y="204.708208" style="fill: #52514e; stroke: #52514e; stroke-width: 0.8"/>
      </g>
     </g>
     <g id="text_10">
      <!-- 2 -->
      <g style="fill: #52514e" transform="translate(13.5625 208.507036) scale(0.1 -0.1)">
       <use xlink:href="#DejaVuSans-15"/>
      </g>
     </g>
    </g>
    <g id="ytick_3">
     <g id="line2d_19">
      <path d="M 26.925 180.017677 
L 431.87976 180.017677 
" clip-path="url(#p62d05ca90d)" style="fill: none; stroke: #e4e3df; stroke-width: 0.8; stroke-linecap: square"/>
     </g>
     <g id="line2d_20">
      <g>
       <use xlink:href="#mbd95bcdca5" x="26.925" y="180.017677" style="fill: #52514e; stroke: #52514e; stroke-width: 0.8"/>
      </g>
     </g>
     <g id="text_11">
      <!-- 4 -->
      <g style="fill: #52514e" transform="translate(13.5625 183.816506) scale(0.1 -0.1)">
       <defs>
        <path id="DejaVuSans-17" d="M 2419 4116 
L 825 1625 
L 2419 1625 
L 2419 4116 
z
M 2253 4666 
L 3047 4666 
L 3047 1625 
L 3713 1625 
L 3713 1100 
L 3047 1100 
L 3047 0 
L 2419 0 
L 2419 1100 
L 313 1100 
L 313 1709 
L 2253 4666 
z
" transform="scale(0.015625)"/>
       </defs>
       <use xlink:href="#DejaVuSans-17"/>
      </g>
     </g>
    </g>
    <g id="ytick_4">
     <g id="line2d_21">
      <path d="M 26.925 155.327147 
L 431.87976 155.327147 
" clip-path="url(#p62d05ca90d)" style="fill: none; stroke: #e4e3df; stroke-width: 0.8; stroke-linecap: square"/>
     </g>
     <g id="line2d_22">
      <g>
       <use xlink:href="#mbd95bcdca5" x="26.925" y="155.327147" style="fill: #52514e; stroke: #52514e; stroke-width: 0.8"/>
      </g>
     </g>
     <g id="text_12">
      <!-- 6 -->
      <g style="fill: #52514e" transform="translate(13.5625 159.125975) scale(0.1 -0.1)">
       <defs>
        <path id="DejaVuSans-19" d="M 2113 2584 
Q 1688 2584 1439 2293 
Q 1191 2003 1191 1497 
Q 1191 994 1439 701 
Q 1688 409 2113 409 
Q 2538 409 2786 701 
Q 3034 994 3034 1497 
Q 3034 2003 2786 2293 
Q 2538 2584 2113 2584 
z
M 3366 4563 
L 3366 3988 
Q 3128 4100 2886 4159 
Q 2644 4219 2406 4219 
Q 1781 4219 1451 3797 
Q 1122 3375 1075 2522 
Q 1259 2794 1537 2939 
Q 1816 3084 2150 3084 
Q 2853 3084 3261 2657 
Q 3669 2231 3669 1497 
Q 3669 778 3244 343 
Q 2819 -91 2113 -91 
Q 1303 -91 875 529 
Q 447 1150 447 2328 
Q 447 3434 972 4092 
Q 1497 4750 2381 4750 
Q 2619 4750 2861 4703 
Q 3103 4656 3366 4563 
z
" transform="scale(0.015625)"/>
       </defs>
       <use xlink:href="#DejaVuSans-19"/>
      </g>
     </g>
    </g>
    <g id="ytick_5">
     <g id="line2d_23">
      <path d="M 26.925 130.636616 
L 431.87976 130.636616 
" clip-path="url(#p62d05ca90d)" style="fill: none; stroke: #e4e3df; stroke-width: 0.8; stroke-linecap: square"/>
     </g>
     <g id="line2d_24">
      <g>
       <use xlink:href="#mbd95bcdca5" x="26.925" y="130.636616" style="fill: #52514e; stroke: #52514e; stroke-width: 0.8"/>
      </g>
     </g>
     <g id="text_13">
      <!-- 8 -->
      <g style="fill: #52514e" transform="translate(13.5625 134.435444) scale(0.1 -0.1)">
       <defs>
        <path id="DejaVuSans-1b" d="M 2034 2216 
Q 1584 2216 1326 1975 
Q 1069 1734 1069 1313 
Q 1069 891 1326 650 
Q 1584 409 2034 409 
Q 2484 409 2743 651 
Q 3003 894 3003 1313 
Q 3003 1734 2745 1975 
Q 2488 2216 2034 2216 
z
M 1403 2484 
Q 997 2584 770 2862 
Q 544 3141 544 3541 
Q 544 4100 942 4425 
Q 1341 4750 2034 4750 
Q 2731 4750 3128 4425 
Q 3525 4100 3525 3541 
Q 3525 3141 3298 2862 
Q 3072 2584 2669 2484 
Q 3125 2378 3379 2068 
Q 3634 1759 3634 1313 
Q 3634 634 3220 271 
Q 2806 -91 2034 -91 
Q 1263 -91 848 271 
Q 434 634 434 1313 
Q 434 1759 690 2068 
Q 947 2378 1403 2484 
z
M 1172 3481 
Q 1172 3119 1398 2916 
Q 1625 2713 2034 2713 
Q 2441 2713 2670 2916 
Q 2900 3119 2900 3481 
Q 2900 3844 2670 4047 
Q 2441 4250 2034 4250 
Q 1625 4250 1398 4047 
Q 1172 3844 1172 3481 
z
" transform="scale(0.015625)"/>
       </defs>
       <use xlink:href="#DejaVuSans-1b"/>
      </g>
     </g>
    </g>
    <g id="ytick_6">
     <g id="line2d_25">
      <path d="M 26.925 105.946085 
L 431.87976 105.946085 
" clip-path="url(#p62d05ca90d)" style="fill: none; stroke: #e4e3df; stroke-width: 0.8; stroke-linecap: square"/>
     </g>
     <g id="line2d_26">
      <g>
       <use xlink:href="#mbd95bcdca5" x="26.925" y="105.946085" style="fill: #52514e; stroke: #52514e; stroke-width: 0.8"/>
      </g>
     </g>
     <g id="text_14">
      <!-- 10 -->
      <g style="fill: #52514e" transform="translate(7.2 109.744914) scale(0.1 -0.1)">
       <use xlink:href="#DejaVuSans-14"/>
       <use xlink:href="#DejaVuSans-13" transform="translate(63.625 0)"/>
      </g>
     </g>
    </g>
    <g id="ytick_7">
     <g id="line2d_27">
      <path d="M 26.925 81.255555 
L 431.87976 81.255555 
" clip-path="url(#p62d05ca90d)" style="fill: none; stroke: #e4e3df; stroke-width: 0.8; stroke-linecap: square"/>
     </g>
     <g id="line2d_28">
      <g>
       <use xlink:href="#mbd95bcdca5" x="26.925" y="81.255555" style="fill: #52514e; stroke: #52514e; stroke-width: 0.8"/>
      </g>
     </g>
     <g id="text_15">
      <!-- 12 -->
      <g style="fill: #52514e" transform="translate(7.2 85.054383) scale(0.1 -0.1)">
       <use xlink:href="#DejaVuSans-14"/>
       <use xlink:href="#DejaVuSans-15" transform="translate(63.625 0)"/>
      </g>
     </g>
    </g>
    <g id="ytick_8">
     <g id="line2d_29">
      <path d="M 26.925 56.565024 
L 431.87976 56.565024 
" clip-path="url(#p62d05ca90d)" style="fill: none; stroke: #e4e3df; stroke-width: 0.8; stroke-linecap: square"/>
     </g>
     <g id="line2d_30">
      <g>
       <use xlink:href="#mbd95bcdca5" x="26.925" y="56.565024" style="fill: #52514e; stroke: #52514e; stroke-width: 0.8"/>
      </g>
     </g>
     <g id="text_16">
      <!-- 14 -->
      <g style="fill: #52514e" transform="translate(7.2 60.363852) scale(0.1 -0.1)">
       <use xlink:href="#DejaVuSans-14"/>
       <use xlink:href="#DejaVuSans-17" transform="translate(63.625 0)"/>
      </g>
     </g>
    </g>
    <g id="ytick_9">
     <g id="line2d_31">
      <path d="M 26.925 31.874494 
L 431.87976 31.874494 
" clip-path="url(#p62d05ca90d)" style="fill: none; stroke: #e4e3df; stroke-width: 0.8; stroke-linecap: square"/>
     </g>
     <g id="line2d_32">
      <g>
       <use xlink:href="#mbd95bcdca5" x="26.925" y="31.874494" style="fill: #52514e; stroke: #52514e; stroke-width: 0.8"/>
      </g>
     </g>
     <g id="text_17">
      <!-- 16 -->
      <g style="fill: #52514e" transform="translate(7.2 35.673322) scale(0.1 -0.1)">
       <use xlink:href="#DejaVuSans-14"/>
       <use xlink:href="#DejaVuSans-19" transform="translate(63.625 0)"/>
      </g>
     </g>
    </g>
   </g>
   <g id="line2d_33">
    <path d="M 229.40238 229.398739 
L 229.40238 21.998281 
" clip-path="url(#p62d05ca90d)" style="fill: none; stroke: #0b0b0b; stroke-linecap: square"/>
   </g>
   <g id="line2d_34">
    <path d="M 243.204764 229.398739 
L 243.204764 21.998281 
" clip-path="url(#p62d05ca90d)" style="fill: none; stroke-dasharray: 5.55,2.4; stroke-dashoffset: 0; stroke: #52514e; stroke-width: 1.5"/>
   </g>
   <g id="line2d_35">
    <defs>
     <path id="mb4909f9c92" d="M -0 5.656854 
L 5.656854 0 
L 0 -5.656854 
L -5.656854 -0 
z
" style="stroke: #2a78d6; stroke-linejoin: miter"/>
    </defs>
    <g clip-path="url(#p62d05ca90d)">
     <use xlink:href="#mb4909f9c92" x="281.898471" y="221.99158" style="fill: #2a78d6; stroke: #2a78d6; stroke-linejoin: miter"/>
     <use xlink:href="#mb4909f9c92" x="153.138687" y="221.99158" style="fill: #2a78d6; stroke: #2a78d6; stroke-linejoin: miter"/>
     <use xlink:href="#mb4909f9c92" x="192.83795" y="221.99158" style="fill: #2a78d6; stroke: #2a78d6; stroke-linejoin: miter"/>
     <use xlink:href="#mb4909f9c92" x="234.556748" y="221.99158" style="fill: #2a78d6; stroke: #2a78d6; stroke-linejoin: miter"/>
    </g>
   </g>
   <g id="patch_43">
    <path d="M 26.925 229.398739 
L 26.925 21.998281 
" style="fill: none; stroke: #e4e3df; stroke-width: 0.8; stroke-linejoin: miter; stroke-linecap: square"/>
   </g>
   <g id="patch_44">
    <path d="M 26.925 229.398739 
L 431.87976 229.398739 
" style="fill: none; stroke: #e4e3df; stroke-width: 0.8; stroke-linejoin: miter; stroke-linecap: square"/>
   </g>
   <g id="text_18">
    <!--  moyenne 2024 : +2.2 % -->
    <g style="fill: #0b0b0b" transform="translate(243.204764 38.826312) scale(0.085 -0.085)">
     <defs>
      <path id="DejaVuSans-5c" d="M 2059 -325 
Q 1816 -950 1584 -1140 
Q 1353 -1331 966 -1331 
L 506 -1331 
L 506 -850 
L 844 -850 
Q 1081 -850 1212 -737 
Q 1344 -625 1503 -206 
L 1606 56 
L 191 3500 
L 800 3500 
L 1894 763 
L 2988 3500 
L 3597 3500 
L 2059 -325 
z
" transform="scale(0.015625)"/>
      <path id="DejaVuSans-1d" d="M 750 794 
L 1409 794 
L 1409 0 
L 750 0 
L 750 794 
z
M 750 3309 
L 1409 3309 
L 1409 2516 
L 750 2516 
L 750 3309 
z
" transform="scale(0.015625)"/>
      <path id="DejaVuSans-e" d="M 2944 4013 
L 2944 2272 
L 4684 2272 
L 4684 1741 
L 2944 1741 
L 2944 0 
L 2419 0 
L 2419 1741 
L 678 1741 
L 678 2272 
L 2419 2272 
L 2419 4013 
L 2944 4013 
z
" transform="scale(0.015625)"/>
      <path id="DejaVuSans-11" d="M 684 794 
L 1344 794 
L 1344 0 
L 684 0 
L 684 794 
z
" transform="scale(0.015625)"/>
      <path id="DejaVuSans-8" d="M 4653 2053 
Q 4381 2053 4226 1822 
Q 4072 1591 4072 1178 
Q 4072 772 4226 539 
Q 4381 306 4653 306 
Q 4919 306 5073 539 
Q 5228 772 5228 1178 
Q 5228 1588 5073 1820 
Q 4919 2053 4653 2053 
z
M 4653 2450 
Q 5147 2450 5437 2106 
Q 5728 1763 5728 1178 
Q 5728 594 5436 251 
Q 5144 -91 4653 -91 
Q 4153 -91 3862 251 
Q 3572 594 3572 1178 
Q 3572 1766 3864 2108 
Q 4156 2450 4653 2450 
z
M 1428 4353 
Q 1159 4353 1004 4120 
Q 850 3888 850 3481 
Q 850 3069 1003 2837 
Q 1156 2606 1428 2606 
Q 1700 2606 1854 2837 
Q 2009 3069 2009 3481 
Q 2009 3884 1853 4118 
Q 1697 4353 1428 4353 
z
M 4250 4750 
L 4750 4750 
L 1831 -91 
L 1331 -91 
L 4250 4750 
z
M 1428 4750 
Q 1922 4750 2215 4408 
Q 2509 4066 2509 3481 
Q 2509 2891 2217 2550 
Q 1925 2209 1428 2209 
Q 931 2209 642 2551 
Q 353 2894 353 3481 
Q 353 4063 643 4406 
Q 934 4750 1428 4750 
z
" transform="scale(0.015625)"/>
     </defs>
     <use xlink:href="#DejaVuSans-3"/>
     <use xlink:href="#DejaVuSans-50" transform="translate(31.78125 0)"/>
     <use xlink:href="#DejaVuSans-52" transform="translate(129.1875 0)"/>
     <use xlink:href="#DejaVuSans-5c" transform="translate(190.375 0)"/>
     <use xlink:href="#DejaVuSans-48" transform="translate(249.5625 0)"/>
     <use xlink:href="#DejaVuSans-51" transform="translate(311.09375 0)"/>
     <use xlink:href="#DejaVuSans-51" transform="translate(374.46875 0)"/>
     <use xlink:href="#DejaVuSans-48" transform="translate(437.84375 0)"/>
     <use xlink:href="#DejaVuSans-3" transform="translate(499.375 0)"/>
     <use xlink:href="#DejaVuSans-15" transform="translate(531.15625 0)"/>
     <use xlink:href="#DejaVuSans-13" transform="translate(594.78125 0)"/>
     <use xlink:href="#DejaVuSans-15" transform="translate(658.40625 0)"/>
     <use xlink:href="#DejaVuSans-17" transform="translate(722.03125 0)"/>
     <use xlink:href="#DejaVuSans-3" transform="translate(785.65625 0)"/>
     <use xlink:href="#DejaVuSans-1d" transform="translate(817.4375 0)"/>
     <use xlink:href="#DejaVuSans-3" transform="translate(851.125 0)"/>
     <use xlink:href="#DejaVuSans-e" transform="translate(882.90625 0)"/>
     <use xlink:href="#DejaVuSans-15" transform="translate(966.703125 0)"/>
     <use xlink:href="#DejaVuSans-11" transform="translate(1030.328125 0)"/>
     <use xlink:href="#DejaVuSans-15" transform="translate(1062.109375 0)"/>
     <use xlink:href="#DejaVuSans-3" transform="translate(1125.734375 0)"/>
     <use xlink:href="#DejaVuSans-8" transform="translate(1157.515625 0)"/>
    </g>
   </g>
   <g id="text_19">
    <!-- Régions : MinT shrink / BU − 1 (%), écrêté à ±30 % -->
    <g style="fill: #0b0b0b" transform="translate(26.925 15.998281) scale(0.11 -0.11)">
     <defs>
      <path id="DejaVuSans-Bold-35" d="M 2297 2597 
Q 2675 2597 2839 2737 
Q 3003 2878 3003 3200 
Q 3003 3519 2839 3656 
Q 2675 3794 2297 3794 
L 1791 3794 
L 1791 2597 
L 2297 2597 
z
M 1791 1766 
L 1791 0 
L 588 0 
L 588 4666 
L 2425 4666 
Q 3347 4666 3776 4356 
Q 4206 4047 4206 3378 
Q 4206 2916 3982 2619 
Q 3759 2322 3309 2181 
Q 3556 2125 3751 1926 
Q 3947 1728 4147 1325 
L 4800 0 
L 3519 0 
L 2950 1159 
Q 2778 1509 2601 1637 
Q 2425 1766 2131 1766 
L 1791 1766 
z
" transform="scale(0.015625)"/>
      <path id="DejaVuSans-Bold-ab" d="M 4031 1759 
L 4031 1441 
L 1416 1441 
Q 1456 1047 1700 850 
Q 1944 653 2381 653 
Q 2734 653 3104 758 
Q 3475 863 3866 1075 
L 3866 213 
Q 3469 63 3072 -14 
Q 2675 -91 2278 -91 
Q 1328 -91 801 392 
Q 275 875 275 1747 
Q 275 2603 792 3093 
Q 1309 3584 2216 3584 
Q 3041 3584 3536 3087 
Q 4031 2591 4031 1759 
z
M 2881 2131 
Q 2881 2450 2695 2645 
Q 2509 2841 2209 2841 
Q 1884 2841 1681 2658 
Q 1478 2475 1428 2131 
L 2881 2131 
z
M 2700 5119 
L 3584 5119 
L 2431 3944 
L 1819 3944 
L 2700 5119 
z
" transform="scale(0.015625)"/>
      <path id="DejaVuSans-Bold-4a" d="M 2919 594 
Q 2688 288 2409 144 
Q 2131 0 1766 0 
Q 1125 0 706 504 
Q 288 1009 288 1791 
Q 288 2575 706 3076 
Q 1125 3578 1766 3578 
Q 2131 3578 2409 3434 
Q 2688 3291 2919 2981 
L 2919 3500 
L 4044 3500 
L 4044 353 
Q 4044 -491 3511 -936 
Q 2978 -1381 1966 -1381 
Q 1638 -1381 1331 -1331 
Q 1025 -1281 716 -1178 
L 716 -306 
Q 1009 -475 1290 -558 
Q 1572 -641 1856 -641 
Q 2406 -641 2662 -400 
Q 2919 -159 2919 353 
L 2919 594 
z
M 2181 2772 
Q 1834 2772 1640 2515 
Q 1447 2259 1447 1791 
Q 1447 1309 1634 1061 
Q 1822 813 2181 813 
Q 2531 813 2725 1069 
Q 2919 1325 2919 1791 
Q 2919 2259 2725 2515 
Q 2531 2772 2181 2772 
z
" transform="scale(0.015625)"/>
      <path id="DejaVuSans-Bold-4c" d="M 538 3500 
L 1656 3500 
L 1656 0 
L 538 0 
L 538 3500 
z
M 538 4863 
L 1656 4863 
L 1656 3950 
L 538 3950 
L 538 4863 
z
" transform="scale(0.015625)"/>
      <path id="DejaVuSans-Bold-52" d="M 2203 2784 
Q 1831 2784 1636 2517 
Q 1441 2250 1441 1747 
Q 1441 1244 1636 976 
Q 1831 709 2203 709 
Q 2569 709 2762 976 
Q 2956 1244 2956 1747 
Q 2956 2250 2762 2517 
Q 2569 2784 2203 2784 
z
M 2203 3584 
Q 3106 3584 3614 3096 
Q 4122 2609 4122 1747 
Q 4122 884 3614 396 
Q 3106 -91 2203 -91 
Q 1297 -91 786 396 
Q 275 884 275 1747 
Q 275 2609 786 3096 
Q 1297 3584 2203 3584 
z
" transform="scale(0.015625)"/>
      <path id="DejaVuSans-Bold-51" d="M 4056 2131 
L 4056 0 
L 2931 0 
L 2931 347 
L 2931 1631 
Q 2931 2084 2911 2256 
Q 2891 2428 2841 2509 
Q 2775 2619 2662 2680 
Q 2550 2741 2406 2741 
Q 2056 2741 1856 2470 
Q 1656 2200 1656 1722 
L 1656 0 
L 538 0 
L 538 3500 
L 1656 3500 
L 1656 2988 
Q 1909 3294 2193 3439 
Q 2478 3584 2822 3584 
Q 3428 3584 3742 3212 
Q 4056 2841 4056 2131 
z
" transform="scale(0.015625)"/>
      <path id="DejaVuSans-Bold-56" d="M 3272 3391 
L 3272 2541 
Q 2913 2691 2578 2766 
Q 2244 2841 1947 2841 
Q 1628 2841 1473 2761 
Q 1319 2681 1319 2516 
Q 1319 2381 1436 2309 
Q 1553 2238 1856 2203 
L 2053 2175 
Q 2913 2066 3209 1816 
Q 3506 1566 3506 1031 
Q 3506 472 3093 190 
Q 2681 -91 1863 -91 
Q 1516 -91 1145 -36 
Q 775 19 384 128 
L 384 978 
Q 719 816 1070 734 
Q 1422 653 1784 653 
Q 2113 653 2278 743 
Q 2444 834 2444 1013 
Q 2444 1163 2330 1236 
Q 2216 1309 1875 1350 
L 1678 1375 
Q 931 1469 631 1722 
Q 331 1975 331 2491 
Q 331 3047 712 3315 
Q 1094 3584 1881 3584 
Q 2191 3584 2531 3537 
Q 2872 3491 3272 3391 
z
" transform="scale(0.015625)"/>
      <path id="DejaVuSans-Bold-3" transform="scale(0.015625)"/>
      <path id="DejaVuSans-Bold-1d" d="M 716 3500 
L 1844 3500 
L 1844 2291 
L 716 2291 
L 716 3500 
z
M 716 1209 
L 1844 1209 
L 1844 0 
L 716 0 
L 716 1209 
z
" transform="scale(0.015625)"/>
      <path id="DejaVuSans-Bold-30" d="M 588 4666 
L 2119 4666 
L 3181 2169 
L 4250 4666 
L 5778 4666 
L 5778 0 
L 4641 0 
L 4641 3413 
L 3566 897 
L 2803 897 
L 1728 3413 
L 1728 0 
L 588 0 
L 588 4666 
z
" transform="scale(0.015625)"/>
      <path id="DejaVuSans-Bold-37" d="M 31 4666 
L 4331 4666 
L 4331 3756 
L 2784 3756 
L 2784 0 
L 1581 0 
L 1581 3756 
L 31 3756 
L 31 4666 
z
" transform="scale(0.015625)"/>
      <path id="DejaVuSans-Bold-4b" d="M 4056 2131 
L 4056 0 
L 2931 0 
L 2931 347 
L 2931 1625 
Q 2931 2084 2911 2256 
Q 2891 2428 2841 2509 
Q 2775 2619 2662 2680 
Q 2550 2741 2406 2741 
Q 2056 2741 1856 2470 
Q 1656 2200 1656 1722 
L 1656 0 
L 538 0 
L 538 4863 
L 1656 4863 
L 1656 2988 
Q 1909 3294 2193 3439 
Q 2478 3584 2822 3584 
Q 3428 3584 3742 3212 
Q 4056 2841 4056 2131 
z
" transform="scale(0.015625)"/>
      <path id="DejaVuSans-Bold-55" d="M 3138 2547 
Q 2991 2616 2845 2648 
Q 2700 2681 2553 2681 
Q 2122 2681 1889 2404 
Q 1656 2128 1656 1613 
L 1656 0 
L 538 0 
L 538 3500 
L 1656 3500 
L 1656 2925 
Q 1872 3269 2151 3426 
Q 2431 3584 2822 3584 
Q 2878 3584 2943 3579 
Q 3009 3575 3134 3559 
L 3138 2547 
z
" transform="scale(0.015625)"/>
      <path id="DejaVuSans-Bold-4e" d="M 538 4863 
L 1656 4863 
L 1656 2216 
L 2944 3500 
L 4244 3500 
L 2534 1894 
L 4378 0 
L 3022 0 
L 1656 1459 
L 1656 0 
L 538 0 
L 538 4863 
z
" transform="scale(0.015625)"/>
      <path id="DejaVuSans-Bold-12" d="M 1644 4666 
L 2338 4666 
L 691 -594 
L 0 -594 
L 1644 4666 
z
" transform="scale(0.015625)"/>
      <path id="DejaVuSans-Bold-25" d="M 2456 2859 
Q 2741 2859 2887 2984 
Q 3034 3109 3034 3353 
Q 3034 3594 2887 3720 
Q 2741 3847 2456 3847 
L 1791 3847 
L 1791 2859 
L 2456 2859 
z
M 2497 819 
Q 2859 819 3042 972 
Q 3225 1125 3225 1434 
Q 3225 1738 3044 1889 
Q 2863 2041 2497 2041 
L 1791 2041 
L 1791 819 
L 2497 819 
z
M 3616 2497 
Q 4003 2384 4215 2081 
Q 4428 1778 4428 1338 
Q 4428 663 3972 331 
Q 3516 0 2584 0 
L 588 0 
L 588 4666 
L 2394 4666 
Q 3366 4666 3802 4372 
Q 4238 4078 4238 3431 
Q 4238 3091 4078 2852 
Q 3919 2613 3616 2497 
z
" transform="scale(0.015625)"/>
      <path id="DejaVuSans-Bold-38" d="M 588 4666 
L 1791 4666 
L 1791 1869 
Q 1791 1291 1980 1042 
Q 2169 794 2597 794 
Q 3028 794 3217 1042 
Q 3406 1291 3406 1869 
L 3406 4666 
L 4609 4666 
L 4609 1869 
Q 4609 878 4112 393 
Q 3616 -91 2597 -91 
Q 1581 -91 1084 393 
Q 588 878 588 1869 
L 588 4666 
z
" transform="scale(0.015625)"/>
      <path id="DejaVuSans-Bold-c9c" d="M 678 2375 
L 4684 2375 
L 4684 1638 
L 678 1638 
L 678 2375 
z
" transform="scale(0.015625)"/>
      <path id="DejaVuSans-Bold-14" d="M 750 831 
L 1813 831 
L 1813 3847 
L 722 3622 
L 722 4441 
L 1806 4666 
L 2950 4666 
L 2950 831 
L 4013 831 
L 4013 0 
L 750 0 
L 750 831 
z
" transform="scale(0.015625)"/>
      <path id="DejaVuSans-Bold-b" d="M 2413 -844 
L 1484 -844 
Q 1006 -72 778 623 
Q 550 1319 550 2003 
Q 550 2688 779 3389 
Q 1009 4091 1484 4856 
L 2413 4856 
Q 2013 4116 1813 3408 
Q 1613 2700 1613 2009 
Q 1613 1319 1811 609 
Q 2009 -100 2413 -844 
z
" transform="scale(0.015625)"/>
      <path id="DejaVuSans-Bold-8" d="M 4959 1925 
Q 4738 1925 4616 1733 
Q 4494 1541 4494 1184 
Q 4494 825 4614 633 
Q 4734 441 4959 441 
Q 5184 441 5303 633 
Q 5422 825 5422 1184 
Q 5422 1541 5301 1733 
Q 5181 1925 4959 1925 
z
M 4959 2450 
Q 5541 2450 5875 2112 
Q 6209 1775 6209 1184 
Q 6209 594 5875 251 
Q 5541 -91 4959 -91 
Q 4378 -91 4042 251 
Q 3706 594 3706 1184 
Q 3706 1772 4042 2111 
Q 4378 2450 4959 2450 
z
M 2094 -91 
L 1403 -91 
L 4319 4750 
L 5013 4750 
L 2094 -91 
z
M 1453 4750 
Q 2034 4750 2367 4411 
Q 2700 4072 2700 3481 
Q 2700 2891 2367 2550 
Q 2034 2209 1453 2209 
Q 872 2209 539 2550 
Q 206 2891 206 3481 
Q 206 4072 539 4411 
Q 872 4750 1453 4750 
z
M 1453 4225 
Q 1228 4225 1106 4031 
Q 984 3838 984 3481 
Q 984 3122 1106 2926 
Q 1228 2731 1453 2731 
Q 1678 2731 1798 2926 
Q 1919 3122 1919 3481 
Q 1919 3838 1797 4031 
Q 1675 4225 1453 4225 
z
" transform="scale(0.015625)"/>
      <path id="DejaVuSans-Bold-c" d="M 513 -844 
Q 913 -100 1113 609 
Q 1313 1319 1313 2009 
Q 1313 2700 1113 3408 
Q 913 4116 513 4856 
L 1441 4856 
Q 1916 4091 2145 3389 
Q 2375 2688 2375 2003 
Q 2375 1319 2147 623 
Q 1919 -72 1441 -844 
L 513 -844 
z
" transform="scale(0.015625)"/>
      <path id="DejaVuSans-Bold-f" d="M 653 1209 
L 1778 1209 
L 1778 256 
L 1006 -909 
L 341 -909 
L 653 256 
L 653 1209 
z
" transform="scale(0.015625)"/>
      <path id="DejaVuSans-Bold-46" d="M 3366 3391 
L 3366 2478 
Q 3138 2634 2908 2709 
Q 2678 2784 2431 2784 
Q 1963 2784 1702 2511 
Q 1441 2238 1441 1747 
Q 1441 1256 1702 982 
Q 1963 709 2431 709 
Q 2694 709 2930 787 
Q 3166 866 3366 1019 
L 3366 103 
Q 3103 6 2833 -42 
Q 2563 -91 2291 -91 
Q 1344 -91 809 395 
Q 275 881 275 1747 
Q 275 2613 809 3098 
Q 1344 3584 2291 3584 
Q 2566 3584 2833 3536 
Q 3100 3488 3366 3391 
z
" transform="scale(0.015625)"/>
      <path id="DejaVuSans-Bold-ac" d="M 4031 1759 
L 4031 1441 
L 1416 1441 
Q 1456 1047 1700 850 
Q 1944 653 2381 653 
Q 2734 653 3104 758 
Q 3475 863 3866 1075 
L 3866 213 
Q 3469 63 3072 -14 
Q 2675 -91 2278 -91 
Q 1328 -91 801 392 
Q 275 875 275 1747 
Q 275 2603 792 3093 
Q 1309 3584 2216 3584 
Q 3041 3584 3536 3087 
Q 4031 2591 4031 1759 
z
M 2881 2131 
Q 2881 2450 2695 2645 
Q 2509 2841 2209 2841 
Q 1884 2841 1681 2658 
Q 1478 2475 1428 2131 
L 2881 2131 
z
M 1900 5119 
L 2656 5119 
L 3456 3944 
L 2900 3944 
L 2278 4647 
L 1656 3944 
L 1100 3944 
L 1900 5119 
z
" transform="scale(0.015625)"/>
      <path id="DejaVuSans-Bold-57" d="M 1759 4494 
L 1759 3500 
L 2913 3500 
L 2913 2700 
L 1759 2700 
L 1759 1216 
Q 1759 972 1856 886 
Q 1953 800 2241 800 
L 2816 800 
L 2816 0 
L 1856 0 
Q 1194 0 917 276 
Q 641 553 641 1216 
L 641 2700 
L 84 2700 
L 84 3500 
L 641 3500 
L 641 4494 
L 1759 4494 
z
" transform="scale(0.015625)"/>
      <path id="DejaVuSans-Bold-a2" d="M 2106 1575 
Q 1756 1575 1579 1456 
Q 1403 1338 1403 1106 
Q 1403 894 1545 773 
Q 1688 653 1941 653 
Q 2256 653 2472 879 
Q 2688 1106 2688 1447 
L 2688 1575 
L 2106 1575 
z
M 3816 1997 
L 3816 0 
L 2688 0 
L 2688 519 
Q 2463 200 2181 54 
Q 1900 -91 1497 -91 
Q 953 -91 614 226 
Q 275 544 275 1050 
Q 275 1666 698 1953 
Q 1122 2241 2028 2241 
L 2688 2241 
L 2688 2328 
Q 2688 2594 2478 2717 
Q 2269 2841 1825 2841 
Q 1466 2841 1156 2769 
Q 847 2697 581 2553 
L 581 3406 
Q 941 3494 1303 3539 
Q 1666 3584 2028 3584 
Q 2975 3584 3395 3211 
Q 3816 2838 3816 1997 
z
M 1759 5119 
L 2640 3944 
L 2028 3944 
L 875 5119 
L 1759 5119 
z
" transform="scale(0.015625)"/>
      <path id="DejaVuSans-Bold-73" d="M 3053 4013 
L 3053 2906 
L 4684 2906 
L 4684 2169 
L 3053 2169 
L 3053 1063 
L 2309 1063 
L 2309 2169 
L 678 2169 
L 678 2906 
L 2309 2906 
L 2309 4013 
L 3053 4013 
z
M 678 744 
L 4684 744 
L 4684 0 
L 678 0 
L 678 744 
z
" transform="scale(0.015625)"/>
      <path id="DejaVuSans-Bold-16" d="M 2981 2516 
Q 3453 2394 3698 2092 
Q 3944 1791 3944 1325 
Q 3944 631 3412 270 
Q 2881 -91 1863 -91 
Q 1503 -91 1142 -33 
Q 781 25 428 141 
L 428 1069 
Q 766 900 1098 814 
Q 1431 728 1753 728 
Q 2231 728 2486 893 
Q 2741 1059 2741 1369 
Q 2741 1688 2480 1852 
Q 2219 2016 1709 2016 
L 1228 2016 
L 1228 2791 
L 1734 2791 
Q 2188 2791 2409 2933 
Q 2631 3075 2631 3366 
Q 2631 3634 2415 3781 
Q 2200 3928 1806 3928 
Q 1516 3928 1219 3862 
Q 922 3797 628 3669 
L 628 4550 
Q 984 4650 1334 4700 
Q 1684 4750 2022 4750 
Q 2931 4750 3382 4451 
Q 3834 4153 3834 3553 
Q 3834 3144 3618 2883 
Q 3403 2622 2981 2516 
z
" transform="scale(0.015625)"/>
      <path id="DejaVuSans-Bold-13" d="M 2944 2338 
Q 2944 3213 2780 3570 
Q 2616 3928 2228 3928 
Q 1841 3928 1675 3570 
Q 1509 3213 1509 2338 
Q 1509 1453 1675 1090 
Q 1841 728 2228 728 
Q 2613 728 2778 1090 
Q 2944 1453 2944 2338 
z
M 4147 2328 
Q 4147 1169 3647 539 
Q 3147 -91 2228 -91 
Q 1306 -91 806 539 
Q 306 1169 306 2328 
Q 306 3491 806 4120 
Q 1306 4750 2228 4750 
Q 3147 4750 3647 4120 
Q 4147 3491 4147 2328 
z
" transform="scale(0.015625)"/>
     </defs>
     <use xlink:href="#DejaVuSans-Bold-35"/>
     <use xlink:href="#DejaVuSans-Bold-ab" transform="translate(77 0)"/>
     <use xlink:href="#DejaVuSans-Bold-4a" transform="translate(144.828125 0)"/>
     <use xlink:href="#DejaVuSans-Bold-4c" transform="translate(216.40625 0)"/>
     <use xlink:href="#DejaVuSans-Bold-52" transform="translate(250.6875 0)"/>
     <use xlink:href="#DejaVuSans-Bold-51" transform="translate(319.390625 0)"/>
     <use xlink:href="#DejaVuSans-Bold-56" transform="translate(390.578125 0)"/>
     <use xlink:href="#DejaVuSans-Bold-3" transform="translate(450.09375 0)"/>
     <use xlink:href="#DejaVuSans-Bold-1d" transform="translate(484.90625 0)"/>
     <use xlink:href="#DejaVuSans-Bold-3" transform="translate(524.890625 0)"/>
     <use xlink:href="#DejaVuSans-Bold-30" transform="translate(559.703125 0)"/>
     <use xlink:href="#DejaVuSans-Bold-4c" transform="translate(659.21875 0)"/>
     <use xlink:href="#DejaVuSans-Bold-51" transform="translate(693.5 0)"/>
     <use xlink:href="#DejaVuSans-Bold-37" transform="translate(764.6875 0)"/>
     <use xlink:href="#DejaVuSans-Bold-3" transform="translate(832.90625 0)"/>
     <use xlink:href="#DejaVuSans-Bold-56" transform="translate(867.71875 0)"/>
     <use xlink:href="#DejaVuSans-Bold-4b" transform="translate(927.234375 0)"/>
     <use xlink:href="#DejaVuSans-Bold-55" transform="translate(998.421875 0)"/>
     <use xlink:href="#DejaVuSans-Bold-4c" transform="translate(1047.734375 0)"/>
     <use xlink:href="#DejaVuSans-Bold-51" transform="translate(1082.015625 0)"/>
     <use xlink:href="#DejaVuSans-Bold-4e" transform="translate(1153.203125 0)"/>
     <use xlink:href="#DejaVuSans-Bold-3" transform="translate(1219.703125 0)"/>
     <use xlink:href="#DejaVuSans-Bold-12" transform="translate(1254.515625 0)"/>
     <use xlink:href="#DejaVuSans-Bold-3" transform="translate(1291.046875 0)"/>
     <use xlink:href="#DejaVuSans-Bold-25" transform="translate(1325.859375 0)"/>
     <use xlink:href="#DejaVuSans-Bold-38" transform="translate(1402.078125 0)"/>
     <use xlink:href="#DejaVuSans-Bold-3" transform="translate(1483.28125 0)"/>
     <use xlink:href="#DejaVuSans-Bold-c9c" transform="translate(1518.09375 0)"/>
     <use xlink:href="#DejaVuSans-Bold-3" transform="translate(1601.890625 0)"/>
     <use xlink:href="#DejaVuSans-Bold-14" transform="translate(1636.703125 0)"/>
     <use xlink:href="#DejaVuSans-Bold-3" transform="translate(1706.28125 0)"/>
     <use xlink:href="#DejaVuSans-Bold-b" transform="translate(1741.09375 0)"/>
     <use xlink:href="#DejaVuSans-Bold-8" transform="translate(1786.796875 0)"/>
     <use xlink:href="#DejaVuSans-Bold-c" transform="translate(1887 0)"/>
     <use xlink:href="#DejaVuSans-Bold-f" transform="translate(1932.703125 0)"/>
     <use xlink:href="#DejaVuSans-Bold-3" transform="translate(1970.6875 0)"/>
     <use xlink:href="#DejaVuSans-Bold-ab" transform="translate(2005.5 0)"/>
     <use xlink:href="#DejaVuSans-Bold-46" transform="translate(2073.328125 0)"/>
     <use xlink:href="#DejaVuSans-Bold-55" transform="translate(2132.609375 0)"/>
     <use xlink:href="#DejaVuSans-Bold-ac" transform="translate(2181.921875 0)"/>
     <use xlink:href="#DejaVuSans-Bold-57" transform="translate(2249.75 0)"/>
     <use xlink:href="#DejaVuSans-Bold-ab" transform="translate(2297.546875 0)"/>
     <use xlink:href="#DejaVuSans-Bold-3" transform="translate(2365.375 0)"/>
     <use xlink:href="#DejaVuSans-Bold-a2" transform="translate(2400.1875 0)"/>
     <use xlink:href="#DejaVuSans-Bold-3" transform="translate(2467.671875 0)"/>
     <use xlink:href="#DejaVuSans-Bold-73" transform="translate(2502.484375 0)"/>
     <use xlink:href="#DejaVuSans-Bold-16" transform="translate(2586.28125 0)"/>
     <use xlink:href="#DejaVuSans-Bold-13" transform="translate(2655.859375 0)"/>
     <use xlink:href="#DejaVuSans-Bold-3" transform="translate(2725.4375 0)"/>
     <use xlink:href="#DejaVuSans-Bold-8" transform="translate(2760.25 0)"/>
    </g>
   </g>
   <g id="legend_1">
    <g id="patch_45">
     <path d="M 34.575 36.106953 
L 51.575 36.106953 
L 51.575 30.156953 
L 34.575 30.156953 
z
" style="fill: #52514e; opacity: 0.55"/>
    </g>
    <g id="text_20">
     <!-- 119 origines de 2024 -->
     <g style="fill: #0b0b0b" transform="translate(58.375 36.106953) scale(0.085 -0.085)">
      <defs>
       <path id="DejaVuSans-1c" d="M 703 97 
L 703 672 
Q 941 559 1184 500 
Q 1428 441 1663 441 
Q 2288 441 2617 861 
Q 2947 1281 2994 2138 
Q 2813 1869 2534 1725 
Q 2256 1581 1919 1581 
Q 1219 1581 811 2004 
Q 403 2428 403 3163 
Q 403 3881 828 4315 
Q 1253 4750 1959 4750 
Q 2769 4750 3195 4129 
Q 3622 3509 3622 2328 
Q 3622 1225 3098 567 
Q 2575 -91 1691 -91 
Q 1453 -91 1209 -44 
Q 966 3 703 97 
z
M 1959 2075 
Q 2384 2075 2632 2365 
Q 2881 2656 2881 3163 
Q 2881 3666 2632 3958 
Q 2384 4250 1959 4250 
Q 1534 4250 1286 3958 
Q 1038 3666 1038 3163 
Q 1038 2656 1286 2365 
Q 1534 2075 1959 2075 
z
" transform="scale(0.015625)"/>
       <path id="DejaVuSans-4a" d="M 2906 1791 
Q 2906 2416 2648 2759 
Q 2391 3103 1925 3103 
Q 1463 3103 1205 2759 
Q 947 2416 947 1791 
Q 947 1169 1205 825 
Q 1463 481 1925 481 
Q 2391 481 2648 825 
Q 2906 1169 2906 1791 
z
M 3481 434 
Q 3481 -459 3084 -895 
Q 2688 -1331 1869 -1331 
Q 1566 -1331 1297 -1286 
Q 1028 -1241 775 -1147 
L 775 -588 
Q 1028 -725 1275 -790 
Q 1522 -856 1778 -856 
Q 2344 -856 2625 -561 
Q 2906 -266 2906 331 
L 2906 616 
Q 2728 306 2450 153 
Q 2172 0 1784 0 
Q 1141 0 747 490 
Q 353 981 353 1791 
Q 353 2603 747 3093 
Q 1141 3584 1784 3584 
Q 2172 3584 2450 3431 
Q 2728 3278 2906 2969 
L 2906 3500 
L 3481 3500 
L 3481 434 
z
" transform="scale(0.015625)"/>
       <path id="DejaVuSans-47" d="M 2906 2969 
L 2906 4863 
L 3481 4863 
L 3481 0 
L 2906 0 
L 2906 525 
Q 2725 213 2448 61 
Q 2172 -91 1784 -91 
Q 1150 -91 751 415 
Q 353 922 353 1747 
Q 353 2572 751 3078 
Q 1150 3584 1784 3584 
Q 2172 3584 2448 3432 
Q 2725 3281 2906 2969 
z
M 947 1747 
Q 947 1113 1208 752 
Q 1469 391 1925 391 
Q 2381 391 2643 752 
Q 2906 1113 2906 1747 
Q 2906 2381 2643 2742 
Q 2381 3103 1925 3103 
Q 1469 3103 1208 2742 
Q 947 2381 947 1747 
z
" transform="scale(0.015625)"/>
      </defs>
      <use xlink:href="#DejaVuSans-14"/>
      <use xlink:href="#DejaVuSans-14" transform="translate(63.625 0)"/>
      <use xlink:href="#DejaVuSans-1c" transform="translate(127.25 0)"/>
      <use xlink:href="#DejaVuSans-3" transform="translate(190.875 0)"/>
      <use xlink:href="#DejaVuSans-52" transform="translate(222.65625 0)"/>
      <use xlink:href="#DejaVuSans-55" transform="translate(283.84375 0)"/>
      <use xlink:href="#DejaVuSans-4c" transform="translate(324.953125 0)"/>
      <use xlink:href="#DejaVuSans-4a" transform="translate(352.734375 0)"/>
      <use xlink:href="#DejaVuSans-4c" transform="translate(416.21875 0)"/>
      <use xlink:href="#DejaVuSans-51" transform="translate(444 0)"/>
      <use xlink:href="#DejaVuSans-48" transform="translate(507.375 0)"/>
      <use xlink:href="#DejaVuSans-56" transform="translate(568.90625 0)"/>
      <use xlink:href="#DejaVuSans-3" transform="translate(621 0)"/>
      <use xlink:href="#DejaVuSans-47" transform="translate(652.78125 0)"/>
      <use xlink:href="#DejaVuSans-48" transform="translate(716.265625 0)"/>
      <use xlink:href="#DejaVuSans-3" transform="translate(777.796875 0)"/>
      <use xlink:href="#DejaVuSans-15" transform="translate(809.578125 0)"/>
      <use xlink:href="#DejaVuSans-13" transform="translate(873.203125 0)"/>
      <use xlink:href="#DejaVuSans-15" transform="translate(936.828125 0)"/>
      <use xlink:href="#DejaVuSans-17" transform="translate(1000.453125 0)"/>
     </g>
    </g>
    <g id="line2d_36">
     <g>
      <use xlink:href="#mb4909f9c92" x="43.075" y="45.882617" style="fill: #2a78d6; stroke: #2a78d6; stroke-linejoin: miter"/>
     </g>
    </g>
    <g id="text_21">
     <!-- 4 mardis de novembre -->
     <g style="fill: #0b0b0b" transform="translate(58.375 48.857617) scale(0.085 -0.085)">
      <defs>
       <path id="DejaVuSans-44" d="M 2194 1759 
Q 1497 1759 1228 1600 
Q 959 1441 959 1056 
Q 959 750 1161 570 
Q 1363 391 1709 391 
Q 2188 391 2477 730 
Q 2766 1069 2766 1631 
L 2766 1759 
L 2194 1759 
z
M 3341 1997 
L 3341 0 
L 2766 0 
L 2766 531 
Q 2569 213 2275 61 
Q 1981 -91 1556 -91 
Q 1019 -91 701 211 
Q 384 513 384 1019 
Q 384 1609 779 1909 
Q 1175 2209 1959 2209 
L 2766 2209 
L 2766 2266 
Q 2766 2663 2505 2880 
Q 2244 3097 1772 3097 
Q 1472 3097 1187 3025 
Q 903 2953 641 2809 
L 641 3341 
Q 956 3463 1253 3523 
Q 1550 3584 1831 3584 
Q 2591 3584 2966 3190 
Q 3341 2797 3341 1997 
z
" transform="scale(0.015625)"/>
       <path id="DejaVuSans-59" d="M 191 3500 
L 800 3500 
L 1894 563 
L 2988 3500 
L 3597 3500 
L 2284 0 
L 1503 0 
L 191 3500 
z
" transform="scale(0.015625)"/>
      </defs>
      <use xlink:href="#DejaVuSans-17"/>
      <use xlink:href="#DejaVuSans-3" transform="translate(63.625 0)"/>
      <use xlink:href="#DejaVuSans-50" transform="translate(95.40625 0)"/>
      <use xlink:href="#DejaVuSans-44" transform="translate(192.8125 0)"/>
      <use xlink:href="#DejaVuSans-55" transform="translate(254.09375 0)"/>
      <use xlink:href="#DejaVuSans-47" transform="translate(293.453125 0)"/>
      <use xlink:href="#DejaVuSans-4c" transform="translate(356.9375 0)"/>
      <use xlink:href="#DejaVuSans-56" transform="translate(384.71875 0)"/>
      <use xlink:href="#DejaVuSans-3" transform="translate(436.8125 0)"/>
      <use xlink:href="#DejaVuSans-47" transform="translate(468.59375 0)"/>
      <use xlink:href="#DejaVuSans-48" transform="translate(532.078125 0)"/>
      <use xlink:href="#DejaVuSans-3" transform="translate(593.609375 0)"/>
      <use xlink:href="#DejaVuSans-51" transform="translate(625.390625 0)"/>
      <use xlink:href="#DejaVuSans-52" transform="translate(688.765625 0)"/>
      <use xlink:href="#DejaVuSans-59" transform="translate(749.953125 0)"/>
      <use xlink:href="#DejaVuSans-48" transform="translate(809.140625 0)"/>
      <use xlink:href="#DejaVuSans-50" transform="translate(870.671875 0)"/>
      <use xlink:href="#DejaVuSans-45" transform="translate(968.078125 0)"/>
      <use xlink:href="#DejaVuSans-55" transform="translate(1031.5625 0)"/>
      <use xlink:href="#DejaVuSans-48" transform="translate(1070.46875 0)"/>
     </g>
    </g>
   </g>
  </g>
  <g id="axes_2">
   <g id="patch_46">
    <path d="M 460.24476 229.398739 
L 865.19952 229.398739 
L 865.19952 21.998281 
L 460.24476 21.998281 
z
" style="fill: #fcfcfb"/>
   </g>
   <g id="patch_47">
    <path d="M 478.651795 229.398739 
L 487.855312 229.398739 
L 487.855312 130.636616 
L 478.651795 130.636616 
z
" clip-path="url(#pcb1ef9484d)" style="fill: #52514e; opacity: 0.55"/>
   </g>
   <g id="patch_48">
    <path d="M 487.855312 229.398739 
L 497.058829 229.398739 
L 497.058829 215.289864 
L 487.855312 215.289864 
z
" clip-path="url(#pcb1ef9484d)" style="fill: #52514e; opacity: 0.55"/>
   </g>
   <g id="patch_49">
    <path d="M 497.058829 229.398739 
L 506.262346 229.398739 
L 506.262346 229.398739 
L 497.058829 229.398739 
z
" clip-path="url(#pcb1ef9484d)" style="fill: #52514e; opacity: 0.55"/>
   </g>
   <g id="patch_50">
    <path d="M 506.262346 229.398739 
L 515.465864 229.398739 
L 515.465864 229.398739 
L 506.262346 229.398739 
z
" clip-path="url(#pcb1ef9484d)" style="fill: #52514e; opacity: 0.55"/>
   </g>
   <g id="patch_51">
    <path d="M 515.465864 229.398739 
L 524.669381 229.398739 
L 524.669381 229.398739 
L 515.465864 229.398739 
z
" clip-path="url(#pcb1ef9484d)" style="fill: #52514e; opacity: 0.55"/>
   </g>
   <g id="patch_52">
    <path d="M 524.669381 229.398739 
L 533.872898 229.398739 
L 533.872898 215.289864 
L 524.669381 215.289864 
z
" clip-path="url(#pcb1ef9484d)" style="fill: #52514e; opacity: 0.55"/>
   </g>
   <g id="patch_53">
    <path d="M 533.872898 229.398739 
L 543.076415 229.398739 
L 543.076415 229.398739 
L 533.872898 229.398739 
z
" clip-path="url(#pcb1ef9484d)" style="fill: #52514e; opacity: 0.55"/>
   </g>
   <g id="patch_54">
    <path d="M 543.076415 229.398739 
L 552.279933 229.398739 
L 552.279933 229.398739 
L 543.076415 229.398739 
z
" clip-path="url(#pcb1ef9484d)" style="fill: #52514e; opacity: 0.55"/>
   </g>
   <g id="patch_55">
    <path d="M 552.279933 229.398739 
L 561.48345 229.398739 
L 561.48345 229.398739 
L 552.279933 229.398739 
z
" clip-path="url(#pcb1ef9484d)" style="fill: #52514e; opacity: 0.55"/>
   </g>
   <g id="patch_56">
    <path d="M 561.48345 229.398739 
L 570.686967 229.398739 
L 570.686967 172.96324 
L 561.48345 172.96324 
z
" clip-path="url(#pcb1ef9484d)" style="fill: #52514e; opacity: 0.55"/>
   </g>
   <g id="patch_57">
    <path d="M 570.686967 229.398739 
L 579.890485 229.398739 
L 579.890485 187.072115 
L 570.686967 187.072115 
z
" clip-path="url(#pcb1ef9484d)" style="fill: #52514e; opacity: 0.55"/>
   </g>
   <g id="patch_58">
    <path d="M 579.890485 229.398739 
L 589.094002 229.398739 
L 589.094002 130.636616 
L 579.890485 130.636616 
z
" clip-path="url(#pcb1ef9484d)" style="fill: #52514e; opacity: 0.55"/>
   </g>
   <g id="patch_59">
    <path d="M 589.094002 229.398739 
L 598.297519 229.398739 
L 598.297519 172.96324 
L 589.094002 172.96324 
z
" clip-path="url(#pcb1ef9484d)" style="fill: #52514e; opacity: 0.55"/>
   </g>
   <g id="patch_60">
    <path d="M 598.297519 229.398739 
L 607.501036 229.398739 
L 607.501036 229.398739 
L 598.297519 229.398739 
z
" clip-path="url(#pcb1ef9484d)" style="fill: #52514e; opacity: 0.55"/>
   </g>
   <g id="patch_61">
    <path d="M 607.501036 229.398739 
L 616.704554 229.398739 
L 616.704554 187.072115 
L 607.501036 187.072115 
z
" clip-path="url(#pcb1ef9484d)" style="fill: #52514e; opacity: 0.55"/>
   </g>
   <g id="patch_62">
    <path d="M 616.704554 229.398739 
L 625.908071 229.398739 
L 625.908071 172.96324 
L 616.704554 172.96324 
z
" clip-path="url(#pcb1ef9484d)" style="fill: #52514e; opacity: 0.55"/>
   </g>
   <g id="patch_63">
    <path d="M 625.908071 229.398739 
L 635.111588 229.398739 
L 635.111588 215.289864 
L 625.908071 215.289864 
z
" clip-path="url(#pcb1ef9484d)" style="fill: #52514e; opacity: 0.55"/>
   </g>
   <g id="patch_64">
    <path d="M 635.111588 229.398739 
L 644.315105 229.398739 
L 644.315105 172.96324 
L 635.111588 172.96324 
z
" clip-path="url(#pcb1ef9484d)" style="fill: #52514e; opacity: 0.55"/>
   </g>
   <g id="patch_65">
    <path d="M 644.315105 229.398739 
L 653.518623 229.398739 
L 653.518623 172.96324 
L 644.315105 172.96324 
z
" clip-path="url(#pcb1ef9484d)" style="fill: #52514e; opacity: 0.55"/>
   </g>
   <g id="patch_66">
    <path d="M 653.518623 229.398739 
L 662.72214 229.398739 
L 662.72214 88.309992 
L 653.518623 88.309992 
z
" clip-path="url(#pcb1ef9484d)" style="fill: #52514e; opacity: 0.55"/>
   </g>
   <g id="patch_67">
    <path d="M 662.72214 229.398739 
L 671.925657 229.398739 
L 671.925657 172.96324 
L 662.72214 172.96324 
z
" clip-path="url(#pcb1ef9484d)" style="fill: #52514e; opacity: 0.55"/>
   </g>
   <g id="patch_68">
    <path d="M 671.925657 229.398739 
L 681.129175 229.398739 
L 681.129175 158.854365 
L 671.925657 158.854365 
z
" clip-path="url(#pcb1ef9484d)" style="fill: #52514e; opacity: 0.55"/>
   </g>
   <g id="patch_69">
    <path d="M 681.129175 229.398739 
L 690.332692 229.398739 
L 690.332692 172.96324 
L 681.129175 172.96324 
z
" clip-path="url(#pcb1ef9484d)" style="fill: #52514e; opacity: 0.55"/>
   </g>
   <g id="patch_70">
    <path d="M 690.332692 229.398739 
L 699.536209 229.398739 
L 699.536209 229.398739 
L 690.332692 229.398739 
z
" clip-path="url(#pcb1ef9484d)" style="fill: #52514e; opacity: 0.55"/>
   </g>
   <g id="patch_71">
    <path d="M 699.536209 229.398739 
L 708.739726 229.398739 
L 708.739726 201.180989 
L 699.536209 201.180989 
z
" clip-path="url(#pcb1ef9484d)" style="fill: #52514e; opacity: 0.55"/>
   </g>
   <g id="patch_72">
    <path d="M 708.739726 229.398739 
L 717.943244 229.398739 
L 717.943244 144.745491 
L 708.739726 144.745491 
z
" clip-path="url(#pcb1ef9484d)" style="fill: #52514e; opacity: 0.55"/>
   </g>
   <g id="patch_73">
    <path d="M 717.943244 229.398739 
L 727.146761 229.398739 
L 727.146761 172.96324 
L 717.943244 172.96324 
z
" clip-path="url(#pcb1ef9484d)" style="fill: #52514e; opacity: 0.55"/>
   </g>
   <g id="patch_74">
    <path d="M 727.146761 229.398739 
L 736.350278 229.398739 
L 736.350278 215.289864 
L 727.146761 215.289864 
z
" clip-path="url(#pcb1ef9484d)" style="fill: #52514e; opacity: 0.55"/>
   </g>
   <g id="patch_75">
    <path d="M 736.350278 229.398739 
L 745.553795 229.398739 
L 745.553795 187.072115 
L 736.350278 187.072115 
z
" clip-path="url(#pcb1ef9484d)" style="fill: #52514e; opacity: 0.55"/>
   </g>
   <g id="patch_76">
    <path d="M 745.553795 229.398739 
L 754.757313 229.398739 
L 754.757313 172.96324 
L 745.553795 172.96324 
z
" clip-path="url(#pcb1ef9484d)" style="fill: #52514e; opacity: 0.55"/>
   </g>
   <g id="patch_77">
    <path d="M 754.757313 229.398739 
L 763.96083 229.398739 
L 763.96083 187.072115 
L 754.757313 187.072115 
z
" clip-path="url(#pcb1ef9484d)" style="fill: #52514e; opacity: 0.55"/>
   </g>
   <g id="patch_78">
    <path d="M 763.96083 229.398739 
L 773.164347 229.398739 
L 773.164347 187.072115 
L 763.96083 187.072115 
z
" clip-path="url(#pcb1ef9484d)" style="fill: #52514e; opacity: 0.55"/>
   </g>
   <g id="patch_79">
    <path d="M 773.164347 229.398739 
L 782.367865 229.398739 
L 782.367865 158.854365 
L 773.164347 158.854365 
z
" clip-path="url(#pcb1ef9484d)" style="fill: #52514e; opacity: 0.55"/>
   </g>
   <g id="patch_80">
    <path d="M 782.367865 229.398739 
L 791.571382 229.398739 
L 791.571382 215.289864 
L 782.367865 215.289864 
z
" clip-path="url(#pcb1ef9484d)" style="fill: #52514e; opacity: 0.55"/>
   </g>
   <g id="patch_81">
    <path d="M 791.571382 229.398739 
L 800.774899 229.398739 
L 800.774899 215.289864 
L 791.571382 215.289864 
z
" clip-path="url(#pcb1ef9484d)" style="fill: #52514e; opacity: 0.55"/>
   </g>
   <g id="patch_82">
    <path d="M 800.774899 229.398739 
L 809.978416 229.398739 
L 809.978416 215.289864 
L 800.774899 215.289864 
z
" clip-path="url(#pcb1ef9484d)" style="fill: #52514e; opacity: 0.55"/>
   </g>
   <g id="patch_83">
    <path d="M 809.978416 229.398739 
L 819.181934 229.398739 
L 819.181934 187.072115 
L 809.978416 187.072115 
z
" clip-path="url(#pcb1ef9484d)" style="fill: #52514e; opacity: 0.55"/>
   </g>
   <g id="patch_84">
    <path d="M 819.181934 229.398739 
L 828.385451 229.398739 
L 828.385451 229.398739 
L 819.181934 229.398739 
z
" clip-path="url(#pcb1ef9484d)" style="fill: #52514e; opacity: 0.55"/>
   </g>
   <g id="patch_85">
    <path d="M 828.385451 229.398739 
L 837.588968 229.398739 
L 837.588968 201.180989 
L 828.385451 201.180989 
z
" clip-path="url(#pcb1ef9484d)" style="fill: #52514e; opacity: 0.55"/>
   </g>
   <g id="patch_86">
    <path d="M 837.588968 229.398739 
L 846.792485 229.398739 
L 846.792485 31.874494 
L 837.588968 31.874494 
z
" clip-path="url(#pcb1ef9484d)" style="fill: #52514e; opacity: 0.55"/>
   </g>
   <g id="matplotlib.axis_3">
    <g id="xtick_8">
     <g id="line2d_37">
      <path d="M 478.651795 229.398739 
L 478.651795 21.998281 
" clip-path="url(#pcb1ef9484d)" style="fill: none; stroke: #e4e3df; stroke-width: 0.8; stroke-linecap: square"/>
     </g>
     <g id="line2d_38">
      <g>
       <use xlink:href="#ma6896f5e79" x="478.651795" y="229.398739" style="fill: #52514e; stroke: #52514e; stroke-width: 0.8"/>
      </g>
     </g>
     <g id="text_22">
      <!-- −30 -->
      <g style="fill: #52514e" transform="translate(468.099451 243.996395) scale(0.1 -0.1)">
       <use xlink:href="#DejaVuSans-c9c"/>
       <use xlink:href="#DejaVuSans-16" transform="translate(83.796875 0)"/>
       <use xlink:href="#DejaVuSans-13" transform="translate(147.421875 0)"/>
      </g>
     </g>
    </g>
    <g id="xtick_9">
     <g id="line2d_39">
      <path d="M 540.008576 229.398739 
L 540.008576 21.998281 
" clip-path="url(#pcb1ef9484d)" style="fill: none; stroke: #e4e3df; stroke-width: 0.8; stroke-linecap: square"/>
     </g>
     <g id="line2d_40">
      <g>
       <use xlink:href="#ma6896f5e79" x="540.008576" y="229.398739" style="fill: #52514e; stroke: #52514e; stroke-width: 0.8"/>
      </g>
     </g>
     <g id="text_23">
      <!-- −20 -->
      <g style="fill: #52514e" transform="translate(529.456233 243.996395) scale(0.1 -0.1)">
       <use xlink:href="#DejaVuSans-c9c"/>
       <use xlink:href="#DejaVuSans-15" transform="translate(83.796875 0)"/>
       <use xlink:href="#DejaVuSans-13" transform="translate(147.421875 0)"/>
      </g>
     </g>
    </g>
    <g id="xtick_10">
     <g id="line2d_41">
      <path d="M 601.365358 229.398739 
L 601.365358 21.998281 
" clip-path="url(#pcb1ef9484d)" style="fill: none; stroke: #e4e3df; stroke-width: 0.8; stroke-linecap: square"/>
     </g>
     <g id="line2d_42">
      <g>
       <use xlink:href="#ma6896f5e79" x="601.365358" y="229.398739" style="fill: #52514e; stroke: #52514e; stroke-width: 0.8"/>
      </g>
     </g>
     <g id="text_24">
      <!-- −10 -->
      <g style="fill: #52514e" transform="translate(590.813014 243.996395) scale(0.1 -0.1)">
       <use xlink:href="#DejaVuSans-c9c"/>
       <use xlink:href="#DejaVuSans-14" transform="translate(83.796875 0)"/>
       <use xlink:href="#DejaVuSans-13" transform="translate(147.421875 0)"/>
      </g>
     </g>
    </g>
    <g id="xtick_11">
     <g id="line2d_43">
      <path d="M 662.72214 229.398739 
L 662.72214 21.998281 
" clip-path="url(#pcb1ef9484d)" style="fill: none; stroke: #e4e3df; stroke-width: 0.8; stroke-linecap: square"/>
     </g>
     <g id="line2d_44">
      <g>
       <use xlink:href="#ma6896f5e79" x="662.72214" y="229.398739" style="fill: #52514e; stroke: #52514e; stroke-width: 0.8"/>
      </g>
     </g>
     <g id="text_25">
      <!-- 0 -->
      <g style="fill: #52514e" transform="translate(659.54089 243.996395) scale(0.1 -0.1)">
       <use xlink:href="#DejaVuSans-13"/>
      </g>
     </g>
    </g>
    <g id="xtick_12">
     <g id="line2d_45">
      <path d="M 724.078922 229.398739 
L 724.078922 21.998281 
" clip-path="url(#pcb1ef9484d)" style="fill: none; stroke: #e4e3df; stroke-width: 0.8; stroke-linecap: square"/>
     </g>
     <g id="line2d_46">
      <g>
       <use xlink:href="#ma6896f5e79" x="724.078922" y="229.398739" style="fill: #52514e; stroke: #52514e; stroke-width: 0.8"/>
      </g>
     </g>
     <g id="text_26">
      <!-- 10 -->
      <g style="fill: #52514e" transform="translate(717.716422 243.996395) scale(0.1 -0.1)">
       <use xlink:href="#DejaVuSans-14"/>
       <use xlink:href="#DejaVuSans-13" transform="translate(63.625 0)"/>
      </g>
     </g>
    </g>
    <g id="xtick_13">
     <g id="line2d_47">
      <path d="M 785.435704 229.398739 
L 785.435704 21.998281 
" clip-path="url(#pcb1ef9484d)" style="fill: none; stroke: #e4e3df; stroke-width: 0.8; stroke-linecap: square"/>
     </g>
     <g id="line2d_48">
      <g>
       <use xlink:href="#ma6896f5e79" x="785.435704" y="229.398739" style="fill: #52514e; stroke: #52514e; stroke-width: 0.8"/>
      </g>
     </g>
     <g id="text_27">
      <!-- 20 -->
      <g style="fill: #52514e" transform="translate(779.073204 243.996395) scale(0.1 -0.1)">
       <use xlink:href="#DejaVuSans-15"/>
       <use xlink:href="#DejaVuSans-13" transform="translate(63.625 0)"/>
      </g>
     </g>
    </g>
    <g id="xtick_14">
     <g id="line2d_49">
      <path d="M 846.792485 229.398739 
L 846.792485 21.998281 
" clip-path="url(#pcb1ef9484d)" style="fill: none; stroke: #e4e3df; stroke-width: 0.8; stroke-linecap: square"/>
     </g>
     <g id="line2d_50">
      <g>
       <use xlink:href="#ma6896f5e79" x="846.792485" y="229.398739" style="fill: #52514e; stroke: #52514e; stroke-width: 0.8"/>
      </g>
     </g>
     <g id="text_28">
      <!-- 30 -->
      <g style="fill: #52514e" transform="translate(840.429985 243.996395) scale(0.1 -0.1)">
       <use xlink:href="#DejaVuSans-16"/>
       <use xlink:href="#DejaVuSans-13" transform="translate(63.625 0)"/>
      </g>
     </g>
    </g>
    <g id="text_29">
     <!-- ← MinT meilleur        MinT moins bon → -->
     <g style="fill: #52514e" transform="translate(564.923702 257.997176) scale(0.1 -0.1)">
      <use xlink:href="#DejaVuSans-c1a"/>
      <use xlink:href="#DejaVuSans-3" transform="translate(83.796875 0)"/>
      <use xlink:href="#DejaVuSans-30" transform="translate(115.578125 0)"/>
      <use xlink:href="#DejaVuSans-4c" transform="translate(201.859375 0)"/>
      <use xlink:href="#DejaVuSans-51" transform="translate(229.640625 0)"/>
      <use xlink:href="#DejaVuSans-37" transform="translate(293.015625 0)"/>
      <use xlink:href="#DejaVuSans-3" transform="translate(354.09375 0)"/>
      <use xlink:href="#DejaVuSans-50" transform="translate(385.875 0)"/>
      <use xlink:href="#DejaVuSans-48" transform="translate(483.28125 0)"/>
      <use xlink:href="#DejaVuSans-4c" transform="translate(544.8125 0)"/>
      <use xlink:href="#DejaVuSans-4f" transform="translate(572.59375 0)"/>
      <use xlink:href="#DejaVuSans-4f" transform="translate(600.375 0)"/>
      <use xlink:href="#DejaVuSans-48" transform="translate(628.15625 0)"/>
      <use xlink:href="#DejaVuSans-58" transform="translate(689.6875 0)"/>
      <use xlink:href="#DejaVuSans-55" transform="translate(753.0625 0)"/>
      <use xlink:href="#DejaVuSans-3" transform="translate(794.171875 0)"/>
      <use xlink:href="#DejaVuSans-3" transform="translate(825.953125 0)"/>
      <use xlink:href="#DejaVuSans-3" transform="translate(857.734375 0)"/>
      <use xlink:href="#DejaVuSans-3" transform="translate(889.515625 0)"/>
      <use xlink:href="#DejaVuSans-3" transform="translate(921.296875 0)"/>
      <use xlink:href="#DejaVuSans-3" transform="translate(953.078125 0)"/>
      <use xlink:href="#DejaVuSans-3" transform="translate(984.859375 0)"/>
      <use xlink:href="#DejaVuSans-3" transform="translate(1016.640625 0)"/>
      <use xlink:href="#DejaVuSans-30" transform="translate(1048.421875 0)"/>
      <use xlink:href="#DejaVuSans-4c" transform="translate(1134.703125 0)"/>
      <use xlink:href="#DejaVuSans-51" transform="translate(1162.484375 0)"/>
      <use xlink:href="#DejaVuSans-37" transform="translate(1225.859375 0)"/>
      <use xlink:href="#DejaVuSans-3" transform="translate(1286.9375 0)"/>
      <use xlink:href="#DejaVuSans-50" transform="translate(1318.71875 0)"/>
      <use xlink:href="#DejaVuSans-52" transform="translate(1416.125 0)"/>
      <use xlink:href="#DejaVuSans-4c" transform="translate(1477.3125 0)"/>
      <use xlink:href="#DejaVuSans-51" transform="translate(1505.09375 0)"/>
      <use xlink:href="#DejaVuSans-56" transform="translate(1568.46875 0)"/>
      <use xlink:href="#DejaVuSans-3" transform="translate(1620.5625 0)"/>
      <use xlink:href="#DejaVuSans-45" transform="translate(1652.34375 0)"/>
      <use xlink:href="#DejaVuSans-52" transform="translate(1715.828125 0)"/>
      <use xlink:href="#DejaVuSans-51" transform="translate(1777.015625 0)"/>
      <use xlink:href="#DejaVuSans-3" transform="translate(1840.390625 0)"/>
      <use xlink:href="#DejaVuSans-c1c" transform="translate(1872.171875 0)"/>
     </g>
    </g>
   </g>
   <g id="matplotlib.axis_4">
    <g id="ytick_10">
     <g id="line2d_51">
      <path d="M 460.24476 229.398739 
L 865.19952 229.398739 
" clip-path="url(#pcb1ef9484d)" style="fill: none; stroke: #e4e3df; stroke-width: 0.8; stroke-linecap: square"/>
     </g>
     <g id="line2d_52">
      <g>
       <use xlink:href="#mbd95bcdca5" x="460.24476" y="229.398739" style="fill: #52514e; stroke: #52514e; stroke-width: 0.8"/>
      </g>
     </g>
     <g id="text_30">
      <!-- 0 -->
      <g style="fill: #52514e" transform="translate(446.88226 233.197567) scale(0.1 -0.1)">
       <use xlink:href="#DejaVuSans-13"/>
      </g>
     </g>
    </g>
    <g id="ytick_11">
     <g id="line2d_53">
      <path d="M 460.24476 201.180989 
L 865.19952 201.180989 
" clip-path="url(#pcb1ef9484d)" style="fill: none; stroke: #e4e3df; stroke-width: 0.8; stroke-linecap: square"/>
     </g>
     <g id="line2d_54">
      <g>
       <use xlink:href="#mbd95bcdca5" x="460.24476" y="201.180989" style="fill: #52514e; stroke: #52514e; stroke-width: 0.8"/>
      </g>
     </g>
     <g id="text_31">
      <!-- 2 -->
      <g style="fill: #52514e" transform="translate(446.88226 204.979818) scale(0.1 -0.1)">
       <use xlink:href="#DejaVuSans-15"/>
      </g>
     </g>
    </g>
    <g id="ytick_12">
     <g id="line2d_55">
      <path d="M 460.24476 172.96324 
L 865.19952 172.96324 
" clip-path="url(#pcb1ef9484d)" style="fill: none; stroke: #e4e3df; stroke-width: 0.8; stroke-linecap: square"/>
     </g>
     <g id="line2d_56">
      <g>
       <use xlink:href="#mbd95bcdca5" x="460.24476" y="172.96324" style="fill: #52514e; stroke: #52514e; stroke-width: 0.8"/>
      </g>
     </g>
     <g id="text_32">
      <!-- 4 -->
      <g style="fill: #52514e" transform="translate(446.88226 176.762068) scale(0.1 -0.1)">
       <use xlink:href="#DejaVuSans-17"/>
      </g>
     </g>
    </g>
    <g id="ytick_13">
     <g id="line2d_57">
      <path d="M 460.24476 144.745491 
L 865.19952 144.745491 
" clip-path="url(#pcb1ef9484d)" style="fill: none; stroke: #e4e3df; stroke-width: 0.8; stroke-linecap: square"/>
     </g>
     <g id="line2d_58">
      <g>
       <use xlink:href="#mbd95bcdca5" x="460.24476" y="144.745491" style="fill: #52514e; stroke: #52514e; stroke-width: 0.8"/>
      </g>
     </g>
     <g id="text_33">
      <!-- 6 -->
      <g style="fill: #52514e" transform="translate(446.88226 148.544319) scale(0.1 -0.1)">
       <use xlink:href="#DejaVuSans-19"/>
      </g>
     </g>
    </g>
    <g id="ytick_14">
     <g id="line2d_59">
      <path d="M 460.24476 116.527741 
L 865.19952 116.527741 
" clip-path="url(#pcb1ef9484d)" style="fill: none; stroke: #e4e3df; stroke-width: 0.8; stroke-linecap: square"/>
     </g>
     <g id="line2d_60">
      <g>
       <use xlink:href="#mbd95bcdca5" x="460.24476" y="116.527741" style="fill: #52514e; stroke: #52514e; stroke-width: 0.8"/>
      </g>
     </g>
     <g id="text_34">
      <!-- 8 -->
      <g style="fill: #52514e" transform="translate(446.88226 120.32657) scale(0.1 -0.1)">
       <use xlink:href="#DejaVuSans-1b"/>
      </g>
     </g>
    </g>
    <g id="ytick_15">
     <g id="line2d_61">
      <path d="M 460.24476 88.309992 
L 865.19952 88.309992 
" clip-path="url(#pcb1ef9484d)" style="fill: none; stroke: #e4e3df; stroke-width: 0.8; stroke-linecap: square"/>
     </g>
     <g id="line2d_62">
      <g>
       <use xlink:href="#mbd95bcdca5" x="460.24476" y="88.309992" style="fill: #52514e; stroke: #52514e; stroke-width: 0.8"/>
      </g>
     </g>
     <g id="text_35">
      <!-- 10 -->
      <g style="fill: #52514e" transform="translate(440.51976 92.10882) scale(0.1 -0.1)">
       <use xlink:href="#DejaVuSans-14"/>
       <use xlink:href="#DejaVuSans-13" transform="translate(63.625 0)"/>
      </g>
     </g>
    </g>
    <g id="ytick_16">
     <g id="line2d_63">
      <path d="M 460.24476 60.092243 
L 865.19952 60.092243 
" clip-path="url(#pcb1ef9484d)" style="fill: none; stroke: #e4e3df; stroke-width: 0.8; stroke-linecap: square"/>
     </g>
     <g id="line2d_64">
      <g>
       <use xlink:href="#mbd95bcdca5" x="460.24476" y="60.092243" style="fill: #52514e; stroke: #52514e; stroke-width: 0.8"/>
      </g>
     </g>
     <g id="text_36">
      <!-- 12 -->
      <g style="fill: #52514e" transform="translate(440.51976 63.891071) scale(0.1 -0.1)">
       <use xlink:href="#DejaVuSans-14"/>
       <use xlink:href="#DejaVuSans-15" transform="translate(63.625 0)"/>
      </g>
     </g>
    </g>
    <g id="ytick_17">
     <g id="line2d_65">
      <path d="M 460.24476 31.874494 
L 865.19952 31.874494 
" clip-path="url(#pcb1ef9484d)" style="fill: none; stroke: #e4e3df; stroke-width: 0.8; stroke-linecap: square"/>
     </g>
     <g id="line2d_66">
      <g>
       <use xlink:href="#mbd95bcdca5" x="460.24476" y="31.874494" style="fill: #52514e; stroke: #52514e; stroke-width: 0.8"/>
      </g>
     </g>
     <g id="text_37">
      <!-- 14 -->
      <g style="fill: #52514e" transform="translate(440.51976 35.673322) scale(0.1 -0.1)">
       <use xlink:href="#DejaVuSans-14"/>
       <use xlink:href="#DejaVuSans-17" transform="translate(63.625 0)"/>
      </g>
     </g>
    </g>
   </g>
   <g id="line2d_67">
    <path d="M 662.72214 229.398739 
L 662.72214 21.998281 
" clip-path="url(#pcb1ef9484d)" style="fill: none; stroke: #0b0b0b; stroke-linecap: square"/>
   </g>
   <g id="line2d_68">
    <path d="M 695.283429 229.398739 
L 695.283429 21.998281 
" clip-path="url(#pcb1ef9484d)" style="fill: none; stroke-dasharray: 5.55,2.4; stroke-dashoffset: 0; stroke: #52514e; stroke-width: 1.5"/>
   </g>
   <g id="line2d_69">
    <g clip-path="url(#pcb1ef9484d)">
     <use xlink:href="#mb4909f9c92" x="845.565414" y="220.933414" style="fill: #2a78d6; stroke: #2a78d6; stroke-linejoin: miter"/>
     <use xlink:href="#mb4909f9c92" x="580.096596" y="220.933414" style="fill: #2a78d6; stroke: #2a78d6; stroke-linejoin: miter"/>
     <use xlink:href="#mb4909f9c92" x="566.200289" y="220.933414" style="fill: #2a78d6; stroke: #2a78d6; stroke-linejoin: miter"/>
     <use xlink:href="#mb4909f9c92" x="678.806879" y="220.933414" style="fill: #2a78d6; stroke: #2a78d6; stroke-linejoin: miter"/>
    </g>
   </g>
   <g id="patch_87">
    <path d="M 460.24476 229.398739 
L 460.24476 21.998281 
" style="fill: none; stroke: #e4e3df; stroke-width: 0.8; stroke-linejoin: miter; stroke-linecap: square"/>
   </g>
   <g id="patch_88">
    <path d="M 460.24476 229.398739 
L 865.19952 229.398739 
" style="fill: none; stroke: #e4e3df; stroke-width: 0.8; stroke-linejoin: miter; stroke-linecap: square"/>
   </g>
   <g id="text_38">
    <!--  moyenne 2024 : +5.3 % -->
    <g style="fill: #0b0b0b" transform="translate(695.283429 38.826312) scale(0.085 -0.085)">
     <defs>
      <path id="DejaVuSans-18" d="M 691 4666 
L 3169 4666 
L 3169 4134 
L 1269 4134 
L 1269 2991 
Q 1406 3038 1543 3061 
Q 1681 3084 1819 3084 
Q 2600 3084 3056 2656 
Q 3513 2228 3513 1497 
Q 3513 744 3044 326 
Q 2575 -91 1722 -91 
Q 1428 -91 1123 -41 
Q 819 9 494 109 
L 494 744 
Q 775 591 1075 516 
Q 1375 441 1709 441 
Q 2250 441 2565 725 
Q 2881 1009 2881 1497 
Q 2881 1984 2565 2268 
Q 2250 2553 1709 2553 
Q 1456 2553 1204 2497 
Q 953 2441 691 2322 
L 691 4666 
z
" transform="scale(0.015625)"/>
     </defs>
     <use xlink:href="#DejaVuSans-3"/>
     <use xlink:href="#DejaVuSans-50" transform="translate(31.78125 0)"/>
     <use xlink:href="#DejaVuSans-52" transform="translate(129.1875 0)"/>
     <use xlink:href="#DejaVuSans-5c" transform="translate(190.375 0)"/>
     <use xlink:href="#DejaVuSans-48" transform="translate(249.5625 0)"/>
     <use xlink:href="#DejaVuSans-51" transform="translate(311.09375 0)"/>
     <use xlink:href="#DejaVuSans-51" transform="translate(374.46875 0)"/>
     <use xlink:href="#DejaVuSans-48" transform="translate(437.84375 0)"/>
     <use xlink:href="#DejaVuSans-3" transform="translate(499.375 0)"/>
     <use xlink:href="#DejaVuSans-15" transform="translate(531.15625 0)"/>
     <use xlink:href="#DejaVuSans-13" transform="translate(594.78125 0)"/>
     <use xlink:href="#DejaVuSans-15" transform="translate(658.40625 0)"/>
     <use xlink:href="#DejaVuSans-17" transform="translate(722.03125 0)"/>
     <use xlink:href="#DejaVuSans-3" transform="translate(785.65625 0)"/>
     <use xlink:href="#DejaVuSans-1d" transform="translate(817.4375 0)"/>
     <use xlink:href="#DejaVuSans-3" transform="translate(851.125 0)"/>
     <use xlink:href="#DejaVuSans-e" transform="translate(882.90625 0)"/>
     <use xlink:href="#DejaVuSans-18" transform="translate(966.703125 0)"/>
     <use xlink:href="#DejaVuSans-11" transform="translate(1030.328125 0)"/>
     <use xlink:href="#DejaVuSans-16" transform="translate(1062.109375 0)"/>
     <use xlink:href="#DejaVuSans-3" transform="translate(1125.734375 0)"/>
     <use xlink:href="#DejaVuSans-8" transform="translate(1157.515625 0)"/>
    </g>
   </g>
   <g id="text_39">
    <!-- France : MinT shrink / BU − 1 (%), écrêté à ±30 % -->
    <g style="fill: #0b0b0b" transform="translate(460.24476 15.998281) scale(0.11 -0.11)">
     <defs>
      <path id="DejaVuSans-Bold-29" d="M 588 4666 
L 3834 4666 
L 3834 3756 
L 1791 3756 
L 1791 2888 
L 3713 2888 
L 3713 1978 
L 1791 1978 
L 1791 0 
L 588 0 
L 588 4666 
z
" transform="scale(0.015625)"/>
      <path id="DejaVuSans-Bold-44" d="M 2106 1575 
Q 1756 1575 1579 1456 
Q 1403 1338 1403 1106 
Q 1403 894 1545 773 
Q 1688 653 1941 653 
Q 2256 653 2472 879 
Q 2688 1106 2688 1447 
L 2688 1575 
L 2106 1575 
z
M 3816 1997 
L 3816 0 
L 2688 0 
L 2688 519 
Q 2463 200 2181 54 
Q 1900 -91 1497 -91 
Q 953 -91 614 226 
Q 275 544 275 1050 
Q 275 1666 698 1953 
Q 1122 2241 2028 2241 
L 2688 2241 
L 2688 2328 
Q 2688 2594 2478 2717 
Q 2269 2841 1825 2841 
Q 1466 2841 1156 2769 
Q 847 2697 581 2553 
L 581 3406 
Q 941 3494 1303 3539 
Q 1666 3584 2028 3584 
Q 2975 3584 3395 3211 
Q 3816 2838 3816 1997 
z
" transform="scale(0.015625)"/>
      <path id="DejaVuSans-Bold-48" d="M 4031 1759 
L 4031 1441 
L 1416 1441 
Q 1456 1047 1700 850 
Q 1944 653 2381 653 
Q 2734 653 3104 758 
Q 3475 863 3866 1075 
L 3866 213 
Q 3469 63 3072 -14 
Q 2675 -91 2278 -91 
Q 1328 -91 801 392 
Q 275 875 275 1747 
Q 275 2603 792 3093 
Q 1309 3584 2216 3584 
Q 3041 3584 3536 3087 
Q 4031 2591 4031 1759 
z
M 2881 2131 
Q 2881 2450 2695 2645 
Q 2509 2841 2209 2841 
Q 1884 2841 1681 2658 
Q 1478 2475 1428 2131 
L 2881 2131 
z
" transform="scale(0.015625)"/>
     </defs>
     <use xlink:href="#DejaVuSans-Bold-29"/>
     <use xlink:href="#DejaVuSans-Bold-55" transform="translate(61.921875 0)"/>
     <use xlink:href="#DejaVuSans-Bold-44" transform="translate(111.234375 0)"/>
     <use xlink:href="#DejaVuSans-Bold-51" transform="translate(178.71875 0)"/>
     <use xlink:href="#DejaVuSans-Bold-46" transform="translate(249.90625 0)"/>
     <use xlink:href="#DejaVuSans-Bold-48" transform="translate(309.1875 0)"/>
     <use xlink:href="#DejaVuSans-Bold-3" transform="translate(377.015625 0)"/>
     <use xlink:href="#DejaVuSans-Bold-1d" transform="translate(411.828125 0)"/>
     <use xlink:href="#DejaVuSans-Bold-3" transform="translate(451.8125 0)"/>
     <use xlink:href="#DejaVuSans-Bold-30" transform="translate(486.625 0)"/>
     <use xlink:href="#DejaVuSans-Bold-4c" transform="translate(586.140625 0)"/>
     <use xlink:href="#DejaVuSans-Bold-51" transform="translate(620.421875 0)"/>
     <use xlink:href="#DejaVuSans-Bold-37" transform="translate(691.609375 0)"/>
     <use xlink:href="#DejaVuSans-Bold-3" transform="translate(759.828125 0)"/>
     <use xlink:href="#DejaVuSans-Bold-56" transform="translate(794.640625 0)"/>
     <use xlink:href="#DejaVuSans-Bold-4b" transform="translate(854.15625 0)"/>
     <use xlink:href="#DejaVuSans-Bold-55" transform="translate(925.34375 0)"/>
     <use xlink:href="#DejaVuSans-Bold-4c" transform="translate(974.65625 0)"/>
     <use xlink:href="#DejaVuSans-Bold-51" transform="translate(1008.9375 0)"/>
     <use xlink:href="#DejaVuSans-Bold-4e" transform="translate(1080.125 0)"/>
     <use xlink:href="#DejaVuSans-Bold-3" transform="translate(1146.625 0)"/>
     <use xlink:href="#DejaVuSans-Bold-12" transform="translate(1181.4375 0)"/>
     <use xlink:href="#DejaVuSans-Bold-3" transform="translate(1217.96875 0)"/>
     <use xlink:href="#DejaVuSans-Bold-25" transform="translate(1252.78125 0)"/>
     <use xlink:href="#DejaVuSans-Bold-38" transform="translate(1329 0)"/>
     <use xlink:href="#DejaVuSans-Bold-3" transform="translate(1410.203125 0)"/>
     <use xlink:href="#DejaVuSans-Bold-c9c" transform="translate(1445.015625 0)"/>
     <use xlink:href="#DejaVuSans-Bold-3" transform="translate(1528.8125 0)"/>
     <use xlink:href="#DejaVuSans-Bold-14" transform="translate(1563.625 0)"/>
     <use xlink:href="#DejaVuSans-Bold-3" transform="translate(1633.203125 0)"/>
     <use xlink:href="#DejaVuSans-Bold-b" transform="translate(1668.015625 0)"/>
     <use xlink:href="#DejaVuSans-Bold-8" transform="translate(1713.71875 0)"/>
     <use xlink:href="#DejaVuSans-Bold-c" transform="translate(1813.921875 0)"/>
     <use xlink:href="#DejaVuSans-Bold-f" transform="translate(1859.625 0)"/>
     <use xlink:href="#DejaVuSans-Bold-3" transform="translate(1897.609375 0)"/>
     <use xlink:href="#DejaVuSans-Bold-ab" transform="translate(1932.421875 0)"/>
     <use xlink:href="#DejaVuSans-Bold-46" transform="translate(2000.25 0)"/>
     <use xlink:href="#DejaVuSans-Bold-55" transform="translate(2059.53125 0)"/>
     <use xlink:href="#DejaVuSans-Bold-ac" transform="translate(2108.84375 0)"/>
     <use xlink:href="#DejaVuSans-Bold-57" transform="translate(2176.671875 0)"/>
     <use xlink:href="#DejaVuSans-Bold-ab" transform="translate(2224.46875 0)"/>
     <use xlink:href="#DejaVuSans-Bold-3" transform="translate(2292.296875 0)"/>
     <use xlink:href="#DejaVuSans-Bold-a2" transform="translate(2327.109375 0)"/>
     <use xlink:href="#DejaVuSans-Bold-3" transform="translate(2394.59375 0)"/>
     <use xlink:href="#DejaVuSans-Bold-73" transform="translate(2429.40625 0)"/>
     <use xlink:href="#DejaVuSans-Bold-16" transform="translate(2513.203125 0)"/>
     <use xlink:href="#DejaVuSans-Bold-13" transform="translate(2582.78125 0)"/>
     <use xlink:href="#DejaVuSans-Bold-3" transform="translate(2652.359375 0)"/>
     <use xlink:href="#DejaVuSans-Bold-8" transform="translate(2687.171875 0)"/>
    </g>
   </g>
  </g>
 </g>
 <defs>
  <clipPath id="p62d05ca90d">
   <rect x="26.925" y="21.998281" width="404.95476" height="207.400457"/>
  </clipPath>
  <clipPath id="pcb1ef9484d">
   <rect x="460.24476" y="21.998281" width="404.95476" height="207.400457"/>
  </clipPath>
 </defs>
</svg>
